STARTFONT 2.1
FONT -FontForge-Futura-Medium-R-Normal--17-120-100-100-P-93-ISO10646-1
SIZE 12 100 100
FONTBOUNDINGBOX 31 23 -9 -5
COMMENT "Generated by fontforge, http://fontforge.sourceforge.net"
COMMENT "(c) Copyright 1998, Neufville Digital. ALL RIGHTS RESERVED. This font is licensed, not sold, and may not be reproduced without the written consent of Neufville Digital. Parts (c) Visualogik Technology & Design, 1998."
STARTPROPERTIES 40
FOUNDRY "FontForge"
FAMILY_NAME "Futura"
WEIGHT_NAME "Medium"
SLANT "R"
SETWIDTH_NAME "Normal"
ADD_STYLE_NAME ""
PIXEL_SIZE 17
POINT_SIZE 120
RESOLUTION_X 100
RESOLUTION_Y 100
SPACING "P"
AVERAGE_WIDTH 93
CHARSET_REGISTRY "ISO10646"
CHARSET_ENCODING "1"
FONTNAME_REGISTRY ""
CHARSET_COLLECTIONS "ISO8859-2 ISO8859-9 ISO8859-4 ISO10646-1"
FONT_NAME "Futura-Medium"
FACE_NAME "Futura Medium"
COPYRIGHT "(c) Copyright 1998, Neufville Digital. ALL RIGHTS RESERVED. This font is licensed, not sold, and may not be reproduced without the written consent of Neufville Digital. Parts (c) Visualogik Technology & Design, 1998."
FONT_VERSION "16.0d2e1"
FONT_ASCENT 14
FONT_DESCENT 3
UNDERLINE_POSITION -2
UNDERLINE_THICKNESS 2
X_HEIGHT 7
CAP_HEIGHT 12
RAW_ASCENT 799
RAW_DESCENT 200
NORM_SPACE 5
RELATIVE_WEIGHT 50
RELATIVE_SETWIDTH 50
SUPERSCRIPT_X 0
SUPERSCRIPT_Y 7
SUPERSCRIPT_SIZE 10
SUBSCRIPT_X 0
SUBSCRIPT_Y 1
SUBSCRIPT_SIZE 10
FIGURE_WIDTH 11
AVG_LOWERCASE_WIDTH 85
AVG_UPPERCASE_WIDTH 114
ENDPROPERTIES
CHARS 419
STARTCHAR .null
ENCODING 0
SWIDTH 0 0
DWIDTH 0 0
BBX 1 1 0 0
BITMAP
00
ENDCHAR
STARTCHAR controlBS
ENCODING 8
SWIDTH 0 0
DWIDTH 0 0
BBX 1 1 0 0
BITMAP
00
ENDCHAR
STARTCHAR controlHT
ENCODING 9
SWIDTH 308 0
DWIDTH 5 0
BBX 1 1 0 0
BITMAP
00
ENDCHAR
STARTCHAR controlCR
ENCODING 13
SWIDTH 500 0
DWIDTH 9 0
BBX 1 1 0 0
BITMAP
00
ENDCHAR
STARTCHAR controlGS
ENCODING 29
SWIDTH 0 0
DWIDTH 0 0
BBX 1 1 0 0
BITMAP
00
ENDCHAR
STARTCHAR space
ENCODING 32
SWIDTH 308 0
DWIDTH 5 0
BBX 1 1 0 0
BITMAP
00
ENDCHAR
STARTCHAR exclam
ENCODING 33
SWIDTH 331 0
DWIDTH 6 0
BBX 2 13 2 0
BITMAP
C0
C0
C0
C0
C0
C0
C0
C0
C0
C0
00
C0
C0
ENDCHAR
STARTCHAR quotedbl
ENCODING 34
SWIDTH 410 0
DWIDTH 7 0
BBX 5 5 1 8
BITMAP
D8
D8
D8
D8
D8
ENDCHAR
STARTCHAR numbersign
ENCODING 35
SWIDTH 617 0
DWIDTH 11 0
BBX 10 13 0 0
BITMAP
1980
1980
1900
1100
7FC0
1100
1100
3300
FFC0
3300
3300
2200
2200
ENDCHAR
STARTCHAR dollar
ENCODING 36
SWIDTH 617 0
DWIDTH 11 0
BBX 8 17 1 -2
BITMAP
08
08
3E
7F
62
60
60
38
1E
07
03
C3
C3
7F
3E
08
08
ENDCHAR
STARTCHAR percent
ENCODING 37
SWIDTH 916 0
DWIDTH 16 0
BBX 14 13 1 0
BITMAP
7020
D840
8C40
8C80
C980
7900
0200
0270
04D8
0C8C
088C
18CC
1078
ENDCHAR
STARTCHAR ampersand
ENCODING 38
SWIDTH 730 0
DWIDTH 12 0
BBX 11 13 1 0
BITMAP
1E00
3E00
2300
3300
3E00
1C00
3C00
6E40
C7C0
C3C0
C380
7FC0
3C60
ENDCHAR
STARTCHAR quotesingle
ENCODING 39
SWIDTH 231 0
DWIDTH 4 0
BBX 2 5 1 8
BITMAP
C0
C0
C0
C0
C0
ENDCHAR
STARTCHAR parenleft
ENCODING 40
SWIDTH 366 0
DWIDTH 6 0
BBX 3 17 2 -3
BITMAP
60
60
C0
C0
C0
C0
C0
80
80
80
80
C0
C0
C0
C0
60
60
ENDCHAR
STARTCHAR parenright
ENCODING 41
SWIDTH 366 0
DWIDTH 6 0
BBX 4 17 1 -3
BITMAP
C0
60
60
60
60
20
30
30
30
30
30
30
60
60
60
60
C0
ENDCHAR
STARTCHAR asterisk
ENCODING 42
SWIDTH 617 0
DWIDTH 11 0
BBX 6 6 2 8
BITMAP
30
B0
FC
38
78
6C
ENDCHAR
STARTCHAR plus
ENCODING 43
SWIDTH 617 0
DWIDTH 11 0
BBX 9 9 1 2
BITMAP
1800
1800
1800
1800
FF80
1800
1800
1800
1800
ENDCHAR
STARTCHAR comma
ENCODING 44
SWIDTH 308 0
DWIDTH 5 0
BBX 4 5 0 -3
BITMAP
30
20
60
40
C0
ENDCHAR
STARTCHAR hyphen
ENCODING 45
SWIDTH 217 0
DWIDTH 4 0
BBX 4 2 0 3
BITMAP
F0
F0
ENDCHAR
STARTCHAR period
ENCODING 46
SWIDTH 308 0
DWIDTH 5 0
BBX 2 2 2 0
BITMAP
C0
C0
ENDCHAR
STARTCHAR slash
ENCODING 47
SWIDTH 518 0
DWIDTH 9 0
BBX 9 17 0 -3
BITMAP
0180
0300
0300
0200
0600
0600
0C00
0C00
1800
1800
1000
3000
3000
6000
6000
C000
C000
ENDCHAR
STARTCHAR zero
ENCODING 48
SWIDTH 617 0
DWIDTH 11 0
BBX 9 13 1 0
BITMAP
3C00
7E00
6300
C300
C180
C180
C180
C180
C180
C300
E300
7E00
3C00
ENDCHAR
STARTCHAR one
ENCODING 49
SWIDTH 617 0
DWIDTH 11 0
BBX 4 13 3 0
BITMAP
F0
F0
30
30
30
30
30
30
30
30
30
30
30
ENDCHAR
STARTCHAR two
ENCODING 50
SWIDTH 617 0
DWIDTH 11 0
BBX 8 13 1 0
BITMAP
3C
7E
C3
C3
03
07
06
0C
1C
38
70
7F
FF
ENDCHAR
STARTCHAR three
ENCODING 51
SWIDTH 617 0
DWIDTH 11 0
BBX 8 13 1 0
BITMAP
3C
7E
C7
03
03
1E
1E
07
03
03
C3
FE
7C
ENDCHAR
STARTCHAR four
ENCODING 52
SWIDTH 617 0
DWIDTH 11 0
BBX 9 12 1 0
BITMAP
0200
0600
0E00
0E00
1E00
3E00
3600
6600
FF80
FF80
0600
0600
ENDCHAR
STARTCHAR five
ENCODING 53
SWIDTH 617 0
DWIDTH 11 0
BBX 8 13 1 0
BITMAP
1F
3F
30
30
7C
7E
47
03
03
03
83
FE
7C
ENDCHAR
STARTCHAR six
ENCODING 54
SWIDTH 617 0
DWIDTH 11 0
BBX 9 13 1 0
BITMAP
0600
0E00
0C00
1800
3000
7E00
7F00
C300
C180
C180
C300
7F00
3E00
ENDCHAR
STARTCHAR seven
ENCODING 55
SWIDTH 617 0
DWIDTH 11 0
BBX 9 13 1 0
BITMAP
FF80
FF80
0300
0600
0600
0C00
1C00
1800
3000
3000
6000
E000
C000
ENDCHAR
STARTCHAR eight
ENCODING 56
SWIDTH 617 0
DWIDTH 11 0
BBX 8 13 1 0
BITMAP
3C
7E
63
43
63
76
3E
67
C3
C3
C3
7F
3E
ENDCHAR
STARTCHAR nine
ENCODING 57
SWIDTH 617 0
DWIDTH 11 0
BBX 9 13 1 0
BITMAP
3C00
7F00
C300
C100
C180
C300
7700
3E00
0C00
0C00
1800
3000
3000
ENDCHAR
STARTCHAR colon
ENCODING 58
SWIDTH 308 0
DWIDTH 5 0
BBX 2 8 2 0
BITMAP
C0
C0
00
00
00
00
C0
C0
ENDCHAR
STARTCHAR semicolon
ENCODING 59
SWIDTH 308 0
DWIDTH 5 0
BBX 4 11 0 -3
BITMAP
30
30
00
00
00
00
30
20
60
40
C0
ENDCHAR
STARTCHAR less
ENCODING 60
SWIDTH 617 0
DWIDTH 11 0
BBX 8 9 1 2
BITMAP
01
07
3C
F0
C0
F0
1C
07
01
ENDCHAR
STARTCHAR equal
ENCODING 61
SWIDTH 617 0
DWIDTH 11 0
BBX 9 4 1 5
BITMAP
FF80
FF80
0000
FF80
ENDCHAR
STARTCHAR greater
ENCODING 62
SWIDTH 617 0
DWIDTH 11 0
BBX 8 9 1 2
BITMAP
C0
F0
3C
0F
03
0F
3C
F0
C0
ENDCHAR
STARTCHAR question
ENCODING 63
SWIDTH 489 0
DWIDTH 8 0
BBX 6 13 1 0
BITMAP
78
FC
CC
CC
1C
78
E0
CC
7C
78
00
30
30
ENDCHAR
STARTCHAR at
ENCODING 64
SWIDTH 880 0
DWIDTH 15 0
BBX 13 13 1 0
BITMAP
0FC0
3860
6030
4758
CFC8
98C8
98C8
98C8
D990
4FF0
6000
3020
0FE0
ENDCHAR
STARTCHAR A
ENCODING 65
SWIDTH 740 0
DWIDTH 13 0
BBX 12 13 0 0
BITMAP
0200
0600
0700
0F00
0D80
0D80
18C0
18C0
3FE0
3FE0
6060
6030
C030
ENDCHAR
STARTCHAR B
ENCODING 66
SWIDTH 591 0
DWIDTH 10 0
BBX 7 13 2 0
BITMAP
F0
F8
8C
8C
8C
98
FC
8E
86
86
86
FC
F8
ENDCHAR
STARTCHAR C
ENCODING 67
SWIDTH 700 0
DWIDTH 12 0
BBX 10 13 1 0
BITMAP
0F80
3FC0
7040
6000
C000
C000
C000
C000
C000
6000
7040
3FC0
1FC0
ENDCHAR
STARTCHAR D
ENCODING 68
SWIDTH 726 0
DWIDTH 12 0
BBX 9 13 2 0
BITMAP
F800
FE00
8700
8380
8180
8180
8180
8180
8180
8180
8700
FE00
FC00
ENDCHAR
STARTCHAR E
ENCODING 69
SWIDTH 565 0
DWIDTH 10 0
BBX 7 13 2 0
BITMAP
FE
FE
80
80
80
FC
FC
80
80
80
80
FE
FE
ENDCHAR
STARTCHAR F
ENCODING 70
SWIDTH 508 0
DWIDTH 9 0
BBX 6 13 2 0
BITMAP
FC
FC
80
80
80
FC
FC
80
80
80
80
80
80
ENDCHAR
STARTCHAR G
ENCODING 71
SWIDTH 842 0
DWIDTH 14 0
BBX 12 13 1 0
BITMAP
0F80
3FE0
7070
6020
C000
C000
C1F0
C1F0
C030
6030
7070
3FE0
1F80
ENDCHAR
STARTCHAR H
ENCODING 72
SWIDTH 733 0
DWIDTH 12 0
BBX 9 13 2 0
BITMAP
8180
8180
8180
8180
8180
FF80
FF80
8180
8180
8180
8180
8180
8180
ENDCHAR
STARTCHAR I
ENCODING 73
SWIDTH 294 0
DWIDTH 5 0
BBX 1 13 2 0
BITMAP
80
80
80
80
80
80
80
80
80
80
80
80
80
ENDCHAR
STARTCHAR J
ENCODING 74
SWIDTH 410 0
DWIDTH 7 0
BBX 5 13 0 0
BITMAP
18
18
18
18
18
18
18
18
18
18
18
F8
F0
ENDCHAR
STARTCHAR K
ENCODING 75
SWIDTH 662 0
DWIDTH 11 0
BBX 9 13 2 0
BITMAP
8380
8700
8E00
9C00
B800
F000
F000
F800
9800
8C00
8E00
8700
8380
ENDCHAR
STARTCHAR L
ENCODING 76
SWIDTH 443 0
DWIDTH 8 0
BBX 5 13 2 0
BITMAP
80
80
80
80
80
80
80
80
80
80
80
F8
F8
ENDCHAR
STARTCHAR M
ENCODING 77
SWIDTH 961 0
DWIDTH 16 0
BBX 14 13 1 0
BITMAP
0010
3010
3030
3830
3878
2C78
6CD8
6CD8
6698
678C
638C
C30C
C10C
ENDCHAR
STARTCHAR N
ENCODING 78
SWIDTH 844 0
DWIDTH 14 0
BBX 11 13 2 0
BITMAP
8060
C060
E060
F060
B060
9860
8C60
8660
8360
81E0
80E0
8060
8020
ENDCHAR
STARTCHAR O
ENCODING 79
SWIDTH 893 0
DWIDTH 15 0
BBX 13 13 1 0
BITMAP
0F80
3FE0
7070
6038
C018
C018
C018
C018
C018
6038
7070
3FE0
0FC0
ENDCHAR
STARTCHAR P
ENCODING 80
SWIDTH 540 0
DWIDTH 9 0
BBX 7 13 2 0
BITMAP
F0
FC
8C
86
86
8C
FC
F0
80
80
80
80
80
ENDCHAR
STARTCHAR Q
ENCODING 81
SWIDTH 893 0
DWIDTH 15 0
BBX 13 13 1 0
BITMAP
0F80
3FE0
7070
6038
C018
C018
C018
C018
C398
61F8
70F0
3FF0
1FF8
ENDCHAR
STARTCHAR R
ENCODING 82
SWIDTH 602 0
DWIDTH 10 0
BBX 7 13 2 0
BITMAP
F0
FC
8C
86
86
8C
FC
F0
B8
98
8C
8E
86
ENDCHAR
STARTCHAR S
ENCODING 83
SWIDTH 583 0
DWIDTH 10 0
BBX 8 13 1 0
BITMAP
3C
7E
62
C0
60
78
1E
07
03
C3
C3
7E
3C
ENDCHAR
STARTCHAR T
ENCODING 84
SWIDTH 482 0
DWIDTH 8 0
BBX 8 13 0 0
BITMAP
FF
FF
18
18
18
18
18
18
18
18
18
18
18
ENDCHAR
STARTCHAR U
ENCODING 85
SWIDTH 738 0
DWIDTH 13 0
BBX 9 13 2 0
BITMAP
8180
8180
8180
8180
8180
8180
8180
8180
8180
C180
C380
7F00
3E00
ENDCHAR
STARTCHAR V
ENCODING 86
SWIDTH 676 0
DWIDTH 12 0
BBX 11 14 0 -1
BITMAP
C060
6060
60C0
70C0
30C0
3180
1980
1B00
1F00
0F00
0E00
0600
0400
0400
ENDCHAR
STARTCHAR W
ENCODING 87
SWIDTH 1060 0
DWIDTH 18 0
BBX 18 14 0 -1
BITMAP
C000C0
60C180
60C180
61C180
31E300
31E300
1B3600
1B3600
1B3C00
0E1C00
0E1C00
041800
040800
040000
ENDCHAR
STARTCHAR X
ENCODING 88
SWIDTH 617 0
DWIDTH 11 0
BBX 10 13 0 0
BITMAP
60C0
7180
3180
1B00
1F00
0E00
0E00
1E00
1B00
3300
3180
6180
E0C0
ENDCHAR
STARTCHAR Y
ENCODING 89
SWIDTH 600 0
DWIDTH 10 0
BBX 10 13 0 0
BITMAP
C0C0
61C0
6180
3300
3B00
1E00
0E00
0C00
0C00
0C00
0C00
0C00
0C00
ENDCHAR
STARTCHAR Z
ENCODING 90
SWIDTH 625 0
DWIDTH 11 0
BBX 9 13 1 0
BITMAP
7F80
7F00
0300
0600
0E00
0C00
1800
1800
3000
3000
6000
FF80
FF80
ENDCHAR
STARTCHAR bracketleft
ENCODING 91
SWIDTH 357 0
DWIDTH 6 0
BBX 3 17 2 -3
BITMAP
E0
E0
C0
C0
C0
C0
C0
C0
C0
C0
C0
C0
C0
C0
C0
C0
E0
ENDCHAR
STARTCHAR backslash
ENCODING 92
SWIDTH 518 0
DWIDTH 9 0
BBX 9 17 0 -3
BITMAP
C000
C000
6000
6000
3000
3000
1000
1800
0800
0C00
0C00
0600
0600
0300
0300
0100
0180
ENDCHAR
STARTCHAR bracketright
ENCODING 93
SWIDTH 357 0
DWIDTH 6 0
BBX 3 17 1 -3
BITMAP
E0
E0
20
20
20
20
20
20
20
20
20
20
20
20
20
20
E0
ENDCHAR
STARTCHAR asciicircum
ENCODING 94
SWIDTH 565 0
DWIDTH 10 0
BBX 8 6 1 7
BITMAP
38
3C
6C
66
C6
C3
ENDCHAR
STARTCHAR underscore
ENCODING 95
SWIDTH 565 0
DWIDTH 10 0
BBX 10 2 0 -3
BITMAP
FFC0
FFC0
ENDCHAR
STARTCHAR grave
ENCODING 96
SWIDTH 565 0
DWIDTH 10 0
BBX 3 4 2 9
BITMAP
C0
E0
60
20
ENDCHAR
STARTCHAR a
ENCODING 97
SWIDTH 599 0
DWIDTH 10 0
BBX 8 8 1 0
BITMAP
7F
E7
C3
C3
C3
C3
E7
7F
ENDCHAR
STARTCHAR b
ENCODING 98
SWIDTH 599 0
DWIDTH 10 0
BBX 8 14 1 0
BITMAP
C0
C0
C0
C0
C0
C0
FE
E7
C3
C3
C3
C3
F7
FE
ENDCHAR
STARTCHAR c
ENCODING 99
SWIDTH 476 0
DWIDTH 8 0
BBX 6 8 1 0
BITMAP
3C
64
C0
C0
C0
C0
74
3C
ENDCHAR
STARTCHAR d
ENCODING 100
SWIDTH 599 0
DWIDTH 10 0
BBX 8 14 1 0
BITMAP
03
03
03
03
03
03
7F
E7
C3
C3
C3
C3
E7
7F
ENDCHAR
STARTCHAR e
ENCODING 101
SWIDTH 553 0
DWIDTH 9 0
BBX 8 8 1 0
BITMAP
7C
E6
C2
FF
C0
C2
EE
7C
ENDCHAR
STARTCHAR f
ENCODING 102
SWIDTH 296 0
DWIDTH 5 0
BBX 4 14 1 0
BITMAP
70
F0
C0
C0
C0
C0
F0
F0
C0
C0
C0
C0
C0
C0
ENDCHAR
STARTCHAR g
ENCODING 103
SWIDTH 598 0
DWIDTH 10 0
BBX 8 12 1 -4
BITMAP
7F
E7
C3
C3
C3
C3
EF
7F
03
C3
67
7E
ENDCHAR
STARTCHAR h
ENCODING 104
SWIDTH 548 0
DWIDTH 9 0
BBX 7 14 1 0
BITMAP
C0
C0
C0
C0
C0
C0
FC
E6
C6
C6
C6
C6
C6
C6
ENDCHAR
STARTCHAR i
ENCODING 105
SWIDTH 249 0
DWIDTH 4 0
BBX 2 13 1 0
BITMAP
40
C0
C0
00
00
C0
C0
C0
C0
C0
C0
C0
C0
ENDCHAR
STARTCHAR j
ENCODING 106
SWIDTH 249 0
DWIDTH 4 0
BBX 2 17 1 -4
BITMAP
40
C0
C0
00
00
C0
C0
C0
C0
C0
C0
C0
C0
C0
C0
C0
C0
ENDCHAR
STARTCHAR k
ENCODING 107
SWIDTH 498 0
DWIDTH 8 0
BBX 7 14 1 0
BITMAP
C0
C0
C0
C0
C0
C0
CE
DC
F8
F0
F8
D8
CC
C6
ENDCHAR
STARTCHAR l
ENCODING 108
SWIDTH 249 0
DWIDTH 4 0
BBX 2 14 1 0
BITMAP
C0
C0
C0
C0
C0
C0
C0
C0
C0
C0
C0
C0
C0
C0
ENDCHAR
STARTCHAR m
ENCODING 109
SWIDTH 791 0
DWIDTH 13 0
BBX 11 8 1 0
BITMAP
FFE0
EF60
C660
C660
C660
C660
C660
C660
ENDCHAR
STARTCHAR n
ENCODING 110
SWIDTH 548 0
DWIDTH 9 0
BBX 7 8 1 0
BITMAP
FC
E6
C6
C6
C6
C6
C6
C6
ENDCHAR
STARTCHAR o
ENCODING 111
SWIDTH 601 0
DWIDTH 10 0
BBX 8 8 1 0
BITMAP
3E
67
C3
C3
C3
C3
77
3E
ENDCHAR
STARTCHAR p
ENCODING 112
SWIDTH 599 0
DWIDTH 10 0
BBX 8 12 1 -4
BITMAP
FE
E7
C3
C3
C3
C3
F7
DE
C0
C0
C0
C0
ENDCHAR
STARTCHAR q
ENCODING 113
SWIDTH 599 0
DWIDTH 10 0
BBX 8 12 1 -4
BITMAP
7F
E7
C3
C3
C3
C3
EF
7F
03
03
03
03
ENDCHAR
STARTCHAR r
ENCODING 114
SWIDTH 374 0
DWIDTH 6 0
BBX 5 8 1 0
BITMAP
F8
F8
C0
C0
C0
C0
C0
C0
ENDCHAR
STARTCHAR s
ENCODING 115
SWIDTH 405 0
DWIDTH 7 0
BBX 5 8 1 0
BITMAP
70
D0
C0
70
38
18
D8
F8
ENDCHAR
STARTCHAR t
ENCODING 116
SWIDTH 273 0
DWIDTH 5 0
BBX 5 11 0 0
BITMAP
60
60
60
F8
F8
60
60
60
60
60
60
ENDCHAR
STARTCHAR u
ENCODING 117
SWIDTH 544 0
DWIDTH 9 0
BBX 7 8 1 0
BITMAP
C6
C6
C6
C6
C6
C6
6E
7C
ENDCHAR
STARTCHAR v
ENCODING 118
SWIDTH 502 0
DWIDTH 9 0
BBX 8 8 0 0
BITMAP
C3
63
66
36
3C
1C
18
08
ENDCHAR
STARTCHAR w
ENCODING 119
SWIDTH 773 0
DWIDTH 13 0
BBX 13 9 0 0
BITMAP
0200
C218
6330
6730
3760
3DE0
1DC0
18C0
0880
ENDCHAR
STARTCHAR x
ENCODING 120
SWIDTH 558 0
DWIDTH 9 0
BBX 8 8 1 0
BITMAP
C6
6E
3C
18
3C
6C
E6
C3
ENDCHAR
STARTCHAR y
ENCODING 121
SWIDTH 543 0
DWIDTH 9 0
BBX 9 12 0 -4
BITMAP
E180
6300
3300
3600
1E00
1C00
0C00
1800
1800
3000
3000
6000
ENDCHAR
STARTCHAR z
ENCODING 122
SWIDTH 543 0
DWIDTH 9 0
BBX 8 8 1 0
BITMAP
FF
FE
0C
18
30
60
FF
FF
ENDCHAR
STARTCHAR braceleft
ENCODING 123
SWIDTH 357 0
DWIDTH 6 0
BBX 4 18 1 -4
BITMAP
70
70
60
60
60
60
60
E0
C0
C0
60
60
60
60
60
60
70
10
ENDCHAR
STARTCHAR bar
ENCODING 124
SWIDTH 565 0
DWIDTH 10 0
BBX 2 16 4 -3
BITMAP
C0
C0
C0
C0
C0
C0
C0
C0
C0
C0
C0
C0
C0
C0
C0
C0
ENDCHAR
STARTCHAR braceright
ENCODING 125
SWIDTH 357 0
DWIDTH 6 0
BBX 4 18 1 -4
BITMAP
E0
E0
60
60
60
60
60
70
30
30
60
60
60
60
60
60
E0
C0
ENDCHAR
STARTCHAR asciitilde
ENCODING 126
SWIDTH 753 0
DWIDTH 13 0
BBX 9 3 2 11
BITMAP
7980
FF00
8600
ENDCHAR
STARTCHAR nonbreakingspace
ENCODING 160
SWIDTH 308 0
DWIDTH 5 0
BBX 1 1 0 0
BITMAP
00
ENDCHAR
STARTCHAR exclamdown
ENCODING 161
SWIDTH 331 0
DWIDTH 6 0
BBX 2 13 2 -3
BITMAP
C0
C0
00
C0
C0
C0
C0
C0
C0
C0
C0
C0
C0
ENDCHAR
STARTCHAR cent
ENCODING 162
SWIDTH 617 0
DWIDTH 11 0
BBX 6 11 2 1
BITMAP
10
38
7C
C4
C0
80
C0
C4
7C
3C
10
ENDCHAR
STARTCHAR sterling
ENCODING 163
SWIDTH 617 0
DWIDTH 11 0
BBX 10 13 0 0
BITMAP
1F00
3F80
3180
60C0
6080
3000
3000
7E00
1800
1800
3880
7FC0
C780
ENDCHAR
STARTCHAR currency
ENCODING 164
SWIDTH 617 0
DWIDTH 11 0
BBX 11 11 0 2
BITMAP
8000
CE60
7FC0
7180
60C0
40C0
40C0
60C0
7180
7FC0
CC60
ENDCHAR
STARTCHAR yen
ENCODING 165
SWIDTH 617 0
DWIDTH 11 0
BBX 10 13 0 0
BITMAP
E0C0
6180
3180
3300
7BC0
7FC0
0E00
7FC0
7FC0
0C00
0C00
0C00
0C00
ENDCHAR
STARTCHAR brokenbar
ENCODING 166
SWIDTH 565 0
DWIDTH 10 0
BBX 2 16 4 -3
BITMAP
C0
C0
C0
C0
C0
C0
C0
00
00
00
C0
C0
C0
C0
C0
C0
ENDCHAR
STARTCHAR section
ENCODING 167
SWIDTH 617 0
DWIDTH 11 0
BBX 8 18 1 -4
BITMAP
3E
7F
63
63
60
3C
7E
63
43
63
77
3C
06
03
C3
66
7E
18
ENDCHAR
STARTCHAR dieresis
ENCODING 168
SWIDTH 565 0
DWIDTH 10 0
BBX 6 3 2 9
BITMAP
C8
DC
08
ENDCHAR
STARTCHAR copyright
ENCODING 169
SWIDTH 857 0
DWIDTH 15 0
BBX 13 13 1 0
BITMAP
0F80
3060
4030
CF90
9898
9008
B008
9008
9808
8F90
4230
2060
1F80
ENDCHAR
STARTCHAR ordfeminine
ENCODING 170
SWIDTH 409 0
DWIDTH 7 0
BBX 5 5 1 8
BITMAP
68
D8
88
88
F8
ENDCHAR
STARTCHAR guillemotleft
ENCODING 171
SWIDTH 575 0
DWIDTH 10 0
BBX 8 8 1 0
BITMAP
33
36
6C
CC
CC
66
36
12
ENDCHAR
STARTCHAR logicalnot
ENCODING 172
SWIDTH 565 0
DWIDTH 10 0
BBX 8 5 1 0
BITMAP
FF
FF
03
03
03
ENDCHAR
STARTCHAR softhyphen
ENCODING 173
SWIDTH 217 0
DWIDTH 4 0
BBX 4 2 0 3
BITMAP
F0
F0
ENDCHAR
STARTCHAR registered
ENCODING 174
SWIDTH 857 0
DWIDTH 15 0
BBX 13 13 1 0
BITMAP
0F80
3060
4030
CF10
8998
8988
8F08
8E08
8B08
8990
4030
2060
1F80
ENDCHAR
STARTCHAR macron
ENCODING 175
SWIDTH 565 0
DWIDTH 10 0
BBX 6 1 2 10
BITMAP
FC
ENDCHAR
STARTCHAR degree
ENCODING 176
SWIDTH 641 0
DWIDTH 11 0
BBX 5 5 3 8
BITMAP
70
D8
88
98
70
ENDCHAR
STARTCHAR plusminus
ENCODING 177
SWIDTH 617 0
DWIDTH 11 0
BBX 9 11 1 0
BITMAP
1800
1800
1800
1800
FF80
1800
1800
1800
0000
FF80
FF80
ENDCHAR
STARTCHAR twosuperior
ENCODING 178
SWIDTH 437 0
DWIDTH 7 0
BBX 5 8 1 5
BITMAP
70
D8
88
18
10
20
40
F8
ENDCHAR
STARTCHAR threesuperior
ENCODING 179
SWIDTH 437 0
DWIDTH 7 0
BBX 5 8 1 5
BITMAP
70
D8
08
30
18
08
98
70
ENDCHAR
STARTCHAR acute
ENCODING 180
SWIDTH 565 0
DWIDTH 10 0
BBX 3 3 4 10
BITMAP
20
60
C0
ENDCHAR
STARTCHAR mu
ENCODING 181
SWIDTH 544 0
DWIDTH 9 0
BBX 7 12 1 -4
BITMAP
C6
C6
C6
C6
C6
C6
EE
FC
C0
C0
C0
C0
ENDCHAR
STARTCHAR paragraph
ENCODING 182
SWIDTH 617 0
DWIDTH 11 0
BBX 10 15 0 -2
BITMAP
3FC0
7F80
F900
F900
F900
7900
1900
1900
1900
1900
1900
1900
1900
1900
1900
ENDCHAR
STARTCHAR periodcentered
ENCODING 183
SWIDTH 308 0
DWIDTH 5 0
BBX 3 3 1 5
BITMAP
40
E0
40
ENDCHAR
STARTCHAR cedilla
ENCODING 184
SWIDTH 565 0
DWIDTH 10 0
BBX 3 3 3 -4
BITMAP
20
60
C0
ENDCHAR
STARTCHAR onesuperior
ENCODING 185
SWIDTH 437 0
DWIDTH 7 0
BBX 3 8 2 5
BITMAP
E0
60
60
60
60
60
60
60
ENDCHAR
STARTCHAR ordmasculine
ENCODING 186
SWIDTH 410 0
DWIDTH 7 0
BBX 5 5 1 8
BITMAP
70
D8
88
88
F8
ENDCHAR
STARTCHAR guillemotright
ENCODING 187
SWIDTH 575 0
DWIDTH 10 0
BBX 8 8 1 0
BITMAP
C8
6C
66
33
33
66
CC
48
ENDCHAR
STARTCHAR onequarter
ENCODING 188
SWIDTH 967 0
DWIDTH 16 0
BBX 14 13 2 0
BITMAP
C040
4040
4080
4180
4100
4208
4208
4418
0438
0828
1848
10FC
2008
ENDCHAR
STARTCHAR onehalf
ENCODING 189
SWIDTH 967 0
DWIDTH 16 0
BBX 14 13 2 0
BITMAP
C040
4040
4080
4180
4100
4230
4248
44C8
0408
0818
1830
1060
20FC
ENDCHAR
STARTCHAR threequarters
ENCODING 190
SWIDTH 967 0
DWIDTH 16 0
BBX 15 13 1 0
BITMAP
7020
9020
1040
30C0
1080
1904
9104
F20C
061C
0414
0C24
087E
1004
ENDCHAR
STARTCHAR questiondown
ENCODING 191
SWIDTH 489 0
DWIDTH 8 0
BBX 6 13 1 -3
BITMAP
30
30
00
38
7C
CC
0C
7C
F0
CC
CC
FC
78
ENDCHAR
STARTCHAR Agrave
ENCODING 192
SWIDTH 740 0
DWIDTH 13 0
BBX 12 17 0 0
BITMAP
0C00
0E00
0200
0000
0200
0600
0700
0F00
0D80
0D80
18C0
18C0
3FE0
3FE0
6060
6030
C030
ENDCHAR
STARTCHAR Aacute
ENCODING 193
SWIDTH 740 0
DWIDTH 13 0
BBX 12 17 0 0
BITMAP
0180
0300
0600
0000
0200
0600
0700
0F00
0D80
0D80
18C0
18C0
3FE0
3FE0
6060
6030
C030
ENDCHAR
STARTCHAR Acircumflex
ENCODING 194
SWIDTH 740 0
DWIDTH 13 0
BBX 12 18 0 0
BITMAP
0200
0700
0F80
0880
0000
0200
0600
0700
0F00
0D80
0D80
18C0
18C0
3FE0
3FE0
6060
6030
C030
ENDCHAR
STARTCHAR Atilde
ENCODING 195
SWIDTH 740 0
DWIDTH 13 0
BBX 12 17 0 0
BITMAP
0400
1FC0
0380
0000
0200
0600
0700
0F00
0D80
0D80
18C0
18C0
3FE0
3FE0
6060
6030
C030
ENDCHAR
STARTCHAR Adieresis
ENCODING 196
SWIDTH 740 0
DWIDTH 13 0
BBX 12 16 0 0
BITMAP
1D80
0980
0000
0200
0600
0700
0F00
0D80
0D80
18C0
18C0
3FE0
3FE0
6060
6030
C030
ENDCHAR
STARTCHAR Aring
ENCODING 197
SWIDTH 740 0
DWIDTH 13 0
BBX 12 18 0 0
BITMAP
0200
0500
0500
0700
0000
0200
0600
0700
0F00
0D80
0D80
18C0
18C0
3FE0
3FE0
6060
6030
C030
ENDCHAR
STARTCHAR AE
ENCODING 198
SWIDTH 1047 0
DWIDTH 18 0
BBX 17 13 0 0
BITMAP
03F000
03F800
070000
070000
0D8000
0DFC00
18FE00
18C000
3FE000
3FE000
606000
603F80
E03F80
ENDCHAR
STARTCHAR Ccedilla
ENCODING 199
SWIDTH 700 0
DWIDTH 12 0
BBX 10 17 1 -4
BITMAP
0F80
3FC0
7040
6000
C000
C000
C000
C000
C000
6000
7040
3FC0
1FC0
0000
0600
0600
0C00
ENDCHAR
STARTCHAR Egrave
ENCODING 200
SWIDTH 565 0
DWIDTH 10 0
BBX 7 17 2 0
BITMAP
60
30
18
00
FE
FE
80
80
80
FC
FC
80
80
80
80
FE
FE
ENDCHAR
STARTCHAR Eacute
ENCODING 201
SWIDTH 565 0
DWIDTH 10 0
BBX 7 17 2 0
BITMAP
1C
38
20
00
FE
FE
80
80
80
FC
FC
80
80
80
80
FE
FE
ENDCHAR
STARTCHAR Ecircumflex
ENCODING 202
SWIDTH 565 0
DWIDTH 10 0
BBX 7 17 2 0
BITMAP
30
78
48
00
FE
FE
80
80
80
FC
FC
80
80
80
80
FE
FE
ENDCHAR
STARTCHAR Edieresis
ENCODING 203
SWIDTH 565 0
DWIDTH 10 0
BBX 7 16 2 0
BITMAP
CC
CC
00
FE
FE
80
80
80
FC
FC
80
80
80
80
FE
FE
ENDCHAR
STARTCHAR Igrave
ENCODING 204
SWIDTH 294 0
DWIDTH 5 0
BBX 3 17 0 0
BITMAP
C0
E0
20
00
20
20
20
20
20
20
20
20
20
20
20
20
20
ENDCHAR
STARTCHAR Iacute
ENCODING 205
SWIDTH 294 0
DWIDTH 5 0
BBX 3 17 2 0
BITMAP
60
E0
80
00
80
80
80
80
80
80
80
80
80
80
80
80
80
ENDCHAR
STARTCHAR Icircumflex
ENCODING 206
SWIDTH 294 0
DWIDTH 5 0
BBX 5 18 0 0
BITMAP
20
70
D8
88
00
20
20
20
20
20
20
20
20
20
20
20
20
20
ENDCHAR
STARTCHAR Idieresis
ENCODING 207
SWIDTH 294 0
DWIDTH 5 0
BBX 5 16 0 0
BITMAP
D8
D8
00
20
20
20
20
20
20
20
20
20
20
20
20
20
ENDCHAR
STARTCHAR Eth
ENCODING 208
SWIDTH 726 0
DWIDTH 12 0
BBX 11 13 0 0
BITMAP
3E00
3F80
21C0
20E0
2060
FC60
FC60
2060
2060
2060
21C0
3F80
3F00
ENDCHAR
STARTCHAR Ntilde
ENCODING 209
SWIDTH 844 0
DWIDTH 14 0
BBX 11 17 2 0
BITMAP
1100
3F00
2700
0000
8060
C060
E060
F060
B060
9860
8C60
8660
8360
81E0
80E0
8060
8020
ENDCHAR
STARTCHAR Ograve
ENCODING 210
SWIDTH 893 0
DWIDTH 15 0
BBX 13 17 1 0
BITMAP
0C00
0600
0300
0000
0F80
3FE0
7070
6038
C018
C018
C018
C018
C018
6038
7070
3FE0
0FC0
ENDCHAR
STARTCHAR Oacute
ENCODING 211
SWIDTH 893 0
DWIDTH 15 0
BBX 13 17 1 0
BITMAP
0180
0300
0200
0000
0F80
3FE0
7070
6038
C018
C018
C018
C018
C018
6038
7070
3FE0
0FC0
ENDCHAR
STARTCHAR Ocircumflex
ENCODING 212
SWIDTH 893 0
DWIDTH 15 0
BBX 13 17 1 0
BITMAP
0700
0F80
0C80
0000
0F80
3FE0
7070
6038
C018
C018
C018
C018
C018
6038
7070
3FE0
0FC0
ENDCHAR
STARTCHAR Otilde
ENCODING 213
SWIDTH 893 0
DWIDTH 15 0
BBX 13 17 1 0
BITMAP
0400
1FC0
0380
0000
0F80
3FE0
7070
6038
C018
C018
C018
C018
C018
6038
7070
3FE0
0FC0
ENDCHAR
STARTCHAR Odieresis
ENCODING 214
SWIDTH 893 0
DWIDTH 15 0
BBX 13 16 1 0
BITMAP
0DC0
0C80
0000
0F80
3FE0
7070
6038
C018
C018
C018
C018
C018
6038
7070
3FE0
0FC0
ENDCHAR
STARTCHAR multiply
ENCODING 215
SWIDTH 617 0
DWIDTH 11 0
BBX 7 7 2 3
BITMAP
86
CC
78
30
78
CC
86
ENDCHAR
STARTCHAR Oslash
ENCODING 216
SWIDTH 892 0
DWIDTH 15 0
BBX 13 13 1 0
BITMAP
0F98
3FF8
7070
60F8
C1D8
C398
C718
CE18
DC18
7838
7070
FFE0
CFC0
ENDCHAR
STARTCHAR Ugrave
ENCODING 217
SWIDTH 738 0
DWIDTH 13 0
BBX 9 17 2 0
BITMAP
3000
1800
0800
0000
8180
8180
8180
8180
8180
8180
8180
8180
8180
C180
C380
7F00
3E00
ENDCHAR
STARTCHAR Uacute
ENCODING 218
SWIDTH 738 0
DWIDTH 13 0
BBX 9 17 2 0
BITMAP
0600
0C00
1800
0000
8180
8180
8180
8180
8180
8180
8180
8180
8180
C180
C380
7F00
3E00
ENDCHAR
STARTCHAR Ucircumflex
ENCODING 219
SWIDTH 738 0
DWIDTH 13 0
BBX 9 17 2 0
BITMAP
1800
3E00
2600
0000
8180
8180
8180
8180
8180
8180
8180
8180
8180
C180
C380
7F00
3E00
ENDCHAR
STARTCHAR Udieresis
ENCODING 220
SWIDTH 738 0
DWIDTH 13 0
BBX 9 16 2 0
BITMAP
7600
2600
0000
8180
8180
8180
8180
8180
8180
8180
8180
8180
C180
C380
7F00
3E00
ENDCHAR
STARTCHAR Yacute
ENCODING 221
SWIDTH 600 0
DWIDTH 10 0
BBX 10 17 0 0
BITMAP
0300
0600
0C00
0000
C0C0
61C0
6180
3300
3B00
1E00
0E00
0C00
0C00
0C00
0C00
0C00
0C00
ENDCHAR
STARTCHAR Thorn
ENCODING 222
SWIDTH 540 0
DWIDTH 9 0
BBX 7 13 2 0
BITMAP
80
80
F8
FC
8E
86
86
8C
FC
E0
80
80
80
ENDCHAR
STARTCHAR germandbls
ENCODING 223
SWIDTH 622 0
DWIDTH 11 0
BBX 9 14 1 0
BITMAP
3C00
6600
C300
C300
C300
CE00
CE00
C300
C180
C180
C180
C300
CF00
CE00
ENDCHAR
STARTCHAR agrave
ENCODING 224
SWIDTH 599 0
DWIDTH 10 0
BBX 8 13 1 0
BITMAP
30
30
18
08
00
7F
E7
C3
C3
C3
C3
E7
7F
ENDCHAR
STARTCHAR aacute
ENCODING 225
SWIDTH 599 0
DWIDTH 10 0
BBX 8 13 1 0
BITMAP
04
0C
18
00
00
7F
E7
C3
C3
C3
C3
E7
7F
ENDCHAR
STARTCHAR acircumflex
ENCODING 226
SWIDTH 599 0
DWIDTH 10 0
BBX 8 13 1 0
BITMAP
08
1C
36
20
00
7F
E7
C3
C3
C3
C3
E7
7F
ENDCHAR
STARTCHAR atilde
ENCODING 227
SWIDTH 599 0
DWIDTH 10 0
BBX 8 12 1 0
BITMAP
32
7E
04
00
7F
E7
C3
C3
C3
C3
E7
7F
ENDCHAR
STARTCHAR adieresis
ENCODING 228
SWIDTH 599 0
DWIDTH 10 0
BBX 8 12 1 0
BITMAP
26
76
20
00
7F
E7
C3
C3
C3
C3
E7
7F
ENDCHAR
STARTCHAR aring
ENCODING 229
SWIDTH 599 0
DWIDTH 10 0
BBX 8 13 1 0
BITMAP
18
24
34
18
00
7F
E7
C3
C3
C3
C3
E7
7F
ENDCHAR
STARTCHAR ae
ENCODING 230
SWIDTH 860 0
DWIDTH 15 0
BBX 13 8 1 0
BITMAP
7FE0
4F30
0618
7FF8
EE00
C610
EFB0
7DE0
ENDCHAR
STARTCHAR ccedilla
ENCODING 231
SWIDTH 476 0
DWIDTH 8 0
BBX 6 12 1 -4
BITMAP
3C
64
C0
C0
C0
C0
74
3C
00
18
30
20
ENDCHAR
STARTCHAR egrave
ENCODING 232
SWIDTH 553 0
DWIDTH 9 0
BBX 8 13 1 0
BITMAP
20
30
18
00
00
7C
E6
C2
FF
C0
C2
EE
7C
ENDCHAR
STARTCHAR eacute
ENCODING 233
SWIDTH 553 0
DWIDTH 9 0
BBX 8 13 1 0
BITMAP
0C
0C
18
10
00
7C
E6
C2
FF
C0
C2
EE
7C
ENDCHAR
STARTCHAR ecircumflex
ENCODING 234
SWIDTH 553 0
DWIDTH 9 0
BBX 8 13 1 0
BITMAP
10
38
6E
04
00
7C
E6
C2
FF
C0
C2
EE
7C
ENDCHAR
STARTCHAR edieresis
ENCODING 235
SWIDTH 553 0
DWIDTH 9 0
BBX 8 12 1 0
BITMAP
64
6E
04
00
7C
E6
C2
FF
C0
C2
EE
7C
ENDCHAR
STARTCHAR igrave
ENCODING 236
SWIDTH 249 0
DWIDTH 4 0
BBX 3 13 0 0
BITMAP
80
C0
60
00
00
60
60
60
60
60
60
60
60
ENDCHAR
STARTCHAR iacute
ENCODING 237
SWIDTH 249 0
DWIDTH 4 0
BBX 3 13 1 0
BITMAP
20
60
40
00
00
C0
C0
C0
C0
C0
C0
C0
C0
ENDCHAR
STARTCHAR icircumflex
ENCODING 238
SWIDTH 249 0
DWIDTH 4 0
BBX 5 13 0 0
BITMAP
20
70
F8
90
00
60
60
60
60
60
60
60
60
ENDCHAR
STARTCHAR idieresis
ENCODING 239
SWIDTH 249 0
DWIDTH 4 0
BBX 6 12 -1 0
BITMAP
48
FC
48
00
30
30
30
30
30
30
30
30
ENDCHAR
STARTCHAR eth
ENCODING 240
SWIDTH 601 0
DWIDTH 10 0
BBX 8 14 1 0
BITMAP
C4
7C
78
4C
06
06
3F
67
C3
C3
C3
C3
77
3E
ENDCHAR
STARTCHAR ntilde
ENCODING 241
SWIDTH 548 0
DWIDTH 9 0
BBX 7 12 1 0
BITMAP
70
FE
00
00
FC
E6
C6
C6
C6
C6
C6
C6
ENDCHAR
STARTCHAR ograve
ENCODING 242
SWIDTH 601 0
DWIDTH 10 0
BBX 8 13 1 0
BITMAP
30
30
18
08
00
3E
67
C3
C3
C3
C3
77
3E
ENDCHAR
STARTCHAR oacute
ENCODING 243
SWIDTH 601 0
DWIDTH 10 0
BBX 8 13 1 0
BITMAP
04
0C
18
00
00
3E
67
C3
C3
C3
C3
77
3E
ENDCHAR
STARTCHAR ocircumflex
ENCODING 244
SWIDTH 601 0
DWIDTH 10 0
BBX 8 13 1 0
BITMAP
08
3C
76
20
00
3E
67
C3
C3
C3
C3
77
3E
ENDCHAR
STARTCHAR otilde
ENCODING 245
SWIDTH 601 0
DWIDTH 10 0
BBX 8 12 1 0
BITMAP
3A
7E
04
00
3E
67
C3
C3
C3
C3
77
3E
ENDCHAR
STARTCHAR odieresis
ENCODING 246
SWIDTH 601 0
DWIDTH 10 0
BBX 8 12 1 0
BITMAP
26
76
20
00
3E
67
C3
C3
C3
C3
77
3E
ENDCHAR
STARTCHAR divide
ENCODING 247
SWIDTH 617 0
DWIDTH 11 0
BBX 9 8 1 3
BITMAP
0800
1800
0800
0000
FF80
0000
1800
1800
ENDCHAR
STARTCHAR oslash
ENCODING 248
SWIDTH 601 0
DWIDTH 10 0
BBX 8 8 1 0
BITMAP
3F
7F
C7
CB
D3
E3
7F
BE
ENDCHAR
STARTCHAR ugrave
ENCODING 249
SWIDTH 544 0
DWIDTH 9 0
BBX 7 13 1 0
BITMAP
20
70
10
00
00
C6
C6
C6
C6
C6
C6
6E
7C
ENDCHAR
STARTCHAR uacute
ENCODING 250
SWIDTH 544 0
DWIDTH 9 0
BBX 7 13 1 0
BITMAP
0C
0C
18
10
00
C6
C6
C6
C6
C6
C6
6E
7C
ENDCHAR
STARTCHAR ucircumflex
ENCODING 251
SWIDTH 544 0
DWIDTH 9 0
BBX 7 13 1 0
BITMAP
10
38
6C
04
00
C6
C6
C6
C6
C6
C6
6E
7C
ENDCHAR
STARTCHAR udieresis
ENCODING 252
SWIDTH 544 0
DWIDTH 9 0
BBX 7 12 1 0
BITMAP
64
6E
04
00
C6
C6
C6
C6
C6
C6
6E
7C
ENDCHAR
STARTCHAR yacute
ENCODING 253
SWIDTH 543 0
DWIDTH 9 0
BBX 9 17 0 -4
BITMAP
0200
0600
0C00
0000
0000
E180
6300
3300
3600
1E00
1C00
0C00
1800
1800
3000
3000
6000
ENDCHAR
STARTCHAR thorn
ENCODING 254
SWIDTH 599 0
DWIDTH 10 0
BBX 8 18 1 -4
BITMAP
C0
C0
C0
C0
C0
C0
FE
E7
C3
C3
C3
C3
F7
DE
C0
C0
C0
C0
ENDCHAR
STARTCHAR ydieresis
ENCODING 255
SWIDTH 543 0
DWIDTH 9 0
BBX 9 16 0 -4
BITMAP
3200
3700
0200
0000
E180
6300
3300
3600
1E00
1C00
0C00
1800
1800
3000
3000
6000
ENDCHAR
STARTCHAR Amacron
ENCODING 256
SWIDTH 740 0
DWIDTH 13 0
BBX 12 16 0 0
BITMAP
1F80
1F80
0000
0200
0600
0700
0F00
0D80
0D80
18C0
18C0
3FE0
3FE0
6060
6030
C030
ENDCHAR
STARTCHAR amacron
ENCODING 257
SWIDTH 599 0
DWIDTH 10 0
BBX 8 11 1 0
BITMAP
7E
00
00
7F
E7
C3
C3
C3
C3
E7
7F
ENDCHAR
STARTCHAR Abreve
ENCODING 258
SWIDTH 740 0
DWIDTH 13 0
BBX 12 17 0 0
BITMAP
1880
0F80
0700
0000
0200
0600
0700
0F00
0D80
0D80
18C0
18C0
3FE0
3FE0
6060
6030
C030
ENDCHAR
STARTCHAR abreve
ENCODING 259
SWIDTH 599 0
DWIDTH 10 0
BBX 8 12 1 0
BITMAP
66
3E
18
00
7F
E7
C3
C3
C3
C3
E7
7F
ENDCHAR
STARTCHAR Aogonek
ENCODING 260
SWIDTH 740 0
DWIDTH 13 0
BBX 12 17 0 -4
BITMAP
0200
0600
0700
0F00
0D80
0D80
18C0
18C0
3FE0
3FE0
6060
6030
C030
0020
0060
0060
0070
ENDCHAR
STARTCHAR aogonek
ENCODING 261
SWIDTH 599 0
DWIDTH 10 0
BBX 8 12 1 -4
BITMAP
7F
E7
C3
C3
C3
C3
E7
7F
06
04
0E
07
ENDCHAR
STARTCHAR Cacute
ENCODING 262
SWIDTH 700 0
DWIDTH 12 0
BBX 10 17 1 0
BITMAP
0180
0300
0600
0000
0F80
3FC0
7040
6000
C000
C000
C000
C000
C000
6000
7040
3FC0
1FC0
ENDCHAR
STARTCHAR cacute
ENCODING 263
SWIDTH 476 0
DWIDTH 8 0
BBX 6 13 1 0
BITMAP
0C
0C
18
10
00
3C
64
C0
C0
C0
C0
74
3C
ENDCHAR
STARTCHAR Ccircumflex
ENCODING 264
SWIDTH 700 0
DWIDTH 12 0
BBX 10 18 1 0
BITMAP
0200
0700
1D80
0800
0000
0F80
3FC0
7040
6000
C000
C000
C000
C000
C000
6000
7040
3FC0
1FC0
ENDCHAR
STARTCHAR ccircumflex
ENCODING 265
SWIDTH 476 0
DWIDTH 8 0
BBX 7 13 1 0
BITMAP
10
38
6E
04
00
3C
64
C0
C0
C0
C0
74
3C
ENDCHAR
STARTCHAR Cdotaccent
ENCODING 266
SWIDTH 700 0
DWIDTH 12 0
BBX 10 17 1 0
BITMAP
0600
0700
0200
0000
0F80
3FC0
7040
6000
C000
C000
C000
C000
C000
6000
7040
3FC0
1FC0
ENDCHAR
STARTCHAR cdotaccent
ENCODING 267
SWIDTH 476 0
DWIDTH 8 0
BBX 6 12 1 0
BITMAP
18
18
00
00
3C
64
C0
C0
C0
C0
74
3C
ENDCHAR
STARTCHAR Ccaron
ENCODING 268
SWIDTH 700 0
DWIDTH 12 0
BBX 10 17 1 0
BITMAP
0D80
0700
0200
0000
0F80
3FC0
7040
6000
C000
C000
C000
C000
C000
6000
7040
3FC0
1FC0
ENDCHAR
STARTCHAR ccaron
ENCODING 269
SWIDTH 476 0
DWIDTH 8 0
BBX 6 13 1 0
BITMAP
64
7C
38
00
00
3C
64
C0
C0
C0
C0
74
3C
ENDCHAR
STARTCHAR Dcaron
ENCODING 270
SWIDTH 726 0
DWIDTH 12 0
BBX 9 18 2 0
BITMAP
4000
EC00
7800
3000
0000
F800
FE00
8700
8380
8180
8180
8180
8180
8180
8180
8700
FE00
FC00
ENDCHAR
STARTCHAR dcaron
ENCODING 271
SWIDTH 708 0
DWIDTH 12 0
BBX 11 14 1 0
BITMAP
0300
0360
0360
0320
0360
0300
7F00
E700
C300
C300
C300
C300
E700
7F00
ENDCHAR
STARTCHAR Dcroat
ENCODING 272
SWIDTH 726 0
DWIDTH 12 0
BBX 11 13 0 0
BITMAP
3E00
3F80
21C0
20E0
2060
FC60
FC60
2060
2060
2060
21C0
3F80
3F00
ENDCHAR
STARTCHAR dcroat
ENCODING 273
SWIDTH 599 0
DWIDTH 10 0
BBX 9 14 1 0
BITMAP
0300
0300
0F80
0F80
0300
0300
7F00
E700
C300
C300
C300
C300
E700
7F00
ENDCHAR
STARTCHAR Emacron
ENCODING 274
SWIDTH 565 0
DWIDTH 10 0
BBX 7 16 2 0
BITMAP
FC
FC
00
FE
FE
80
80
80
FC
FC
80
80
80
80
FE
FE
ENDCHAR
STARTCHAR emacron
ENCODING 275
SWIDTH 553 0
DWIDTH 9 0
BBX 8 11 1 0
BITMAP
7E
00
00
7C
E6
C2
FF
C0
C2
EE
7C
ENDCHAR
STARTCHAR Ebreve
ENCODING 276
SWIDTH 565 0
DWIDTH 10 0
BBX 7 17 2 0
BITMAP
CC
7C
30
00
FE
FE
80
80
80
FC
FC
80
80
80
80
FE
FE
ENDCHAR
STARTCHAR ebreve
ENCODING 277
SWIDTH 553 0
DWIDTH 9 0
BBX 8 12 1 0
BITMAP
66
7C
18
00
7C
E6
C2
FF
C0
C2
EE
7C
ENDCHAR
STARTCHAR Edotaccent
ENCODING 278
SWIDTH 565 0
DWIDTH 10 0
BBX 7 17 2 0
BITMAP
10
30
30
00
FE
FE
80
80
80
FC
FC
80
80
80
80
FE
FE
ENDCHAR
STARTCHAR edotaccent
ENCODING 279
SWIDTH 553 0
DWIDTH 9 0
BBX 8 12 1 0
BITMAP
18
18
10
00
7C
E6
C2
FF
C0
C2
EE
7C
ENDCHAR
STARTCHAR Eogonek
ENCODING 280
SWIDTH 565 0
DWIDTH 10 0
BBX 7 17 2 -4
BITMAP
FE
FE
80
80
80
FC
FC
80
80
80
80
FE
FE
0C
18
1A
0E
ENDCHAR
STARTCHAR eogonek
ENCODING 281
SWIDTH 553 0
DWIDTH 9 0
BBX 8 12 1 -4
BITMAP
7C
E6
C2
FF
C0
C2
EE
7C
18
30
34
3C
ENDCHAR
STARTCHAR Ecaron
ENCODING 282
SWIDTH 565 0
DWIDTH 10 0
BBX 7 17 2 0
BITMAP
FC
78
30
00
FE
FE
80
80
80
FC
FC
80
80
80
80
FE
FE
ENDCHAR
STARTCHAR ecaron
ENCODING 283
SWIDTH 553 0
DWIDTH 9 0
BBX 8 13 1 0
BITMAP
24
7C
18
00
00
7C
E6
C2
FF
C0
C2
EE
7C
ENDCHAR
STARTCHAR Gcircumflex
ENCODING 284
SWIDTH 842 0
DWIDTH 14 0
BBX 12 18 1 0
BITMAP
0200
0700
0D80
0000
0000
0F80
3FE0
7070
6020
C000
C000
C1F0
C1F0
C030
6030
7070
3FE0
1F80
ENDCHAR
STARTCHAR gcircumflex
ENCODING 285
SWIDTH 598 0
DWIDTH 10 0
BBX 8 17 1 -4
BITMAP
10
38
6E
04
00
7F
E7
C3
C3
C3
C3
EF
7F
03
C3
67
7E
ENDCHAR
STARTCHAR Gbreve
ENCODING 286
SWIDTH 842 0
DWIDTH 14 0
BBX 12 17 1 0
BITMAP
1880
0F80
0700
0000
0F80
3FE0
7070
6020
C000
C000
C1F0
C1F0
C030
6030
7070
3FE0
1F80
ENDCHAR
STARTCHAR gbreve
ENCODING 287
SWIDTH 598 0
DWIDTH 10 0
BBX 8 16 1 -4
BITMAP
66
3C
18
00
7F
E7
C3
C3
C3
C3
EF
7F
03
C3
67
7E
ENDCHAR
STARTCHAR Gdotaccent
ENCODING 288
SWIDTH 842 0
DWIDTH 14 0
BBX 12 17 1 0
BITMAP
0200
0700
0200
0000
0F80
3FE0
7070
6020
C000
C000
C1F0
C1F0
C030
6030
7070
3FE0
1F80
ENDCHAR
STARTCHAR gdotaccent
ENCODING 289
SWIDTH 598 0
DWIDTH 10 0
BBX 8 16 1 -4
BITMAP
18
18
00
00
7F
E7
C3
C3
C3
C3
EF
7F
03
C3
67
7E
ENDCHAR
STARTCHAR Gcedilla
ENCODING 290
SWIDTH 842 0
DWIDTH 14 0
BBX 12 18 1 -5
BITMAP
0F80
3FE0
7070
6020
C000
C000
C1F0
C1F0
C030
6030
7070
3FE0
1F80
0000
0300
0300
0300
0200
ENDCHAR
STARTCHAR gcedilla
ENCODING 291
SWIDTH 598 0
DWIDTH 10 0
BBX 8 17 1 -4
BITMAP
18
10
18
18
00
7F
E7
C3
C3
C3
C3
EF
7F
03
C3
67
7E
ENDCHAR
STARTCHAR Hcircumflex
ENCODING 292
SWIDTH 733 0
DWIDTH 12 0
BBX 9 18 2 0
BITMAP
0800
1C00
3600
2000
0000
8180
8180
8180
8180
8180
FF80
FF80
8180
8180
8180
8180
8180
8180
ENDCHAR
STARTCHAR hcircumflex
ENCODING 293
SWIDTH 548 0
DWIDTH 9 0
BBX 9 18 -1 0
BITMAP
1000
7800
EC00
4000
3000
3000
3000
3000
3000
3000
3F00
3980
3180
3180
3180
3180
3180
3180
ENDCHAR
STARTCHAR Hbar
ENCODING 294
SWIDTH 848 0
DWIDTH 14 0
BBX 14 13 0 0
BITMAP
3030
3030
FFFC
FFFC
3030
3FF0
3FF0
3030
3030
3030
3030
3030
3030
ENDCHAR
STARTCHAR hbar
ENCODING 295
SWIDTH 548 0
DWIDTH 9 0
BBX 8 14 0 0
BITMAP
60
60
60
F0
F0
60
7E
73
63
63
63
63
63
63
ENDCHAR
STARTCHAR Itilde
ENCODING 296
SWIDTH 403 0
DWIDTH 7 0
BBX 6 17 0 0
BITMAP
74
FC
00
00
30
30
30
30
30
30
30
30
30
30
30
30
30
ENDCHAR
STARTCHAR itilde
ENCODING 297
SWIDTH 396 0
DWIDTH 7 0
BBX 6 12 0 0
BITMAP
74
FC
08
00
30
30
30
30
30
30
30
30
ENDCHAR
STARTCHAR Imacron
ENCODING 298
SWIDTH 294 0
DWIDTH 5 0
BBX 5 16 0 0
BITMAP
F8
F8
00
20
20
20
20
20
20
20
20
20
20
20
20
20
ENDCHAR
STARTCHAR imacron
ENCODING 299
SWIDTH 249 0
DWIDTH 4 0
BBX 4 11 0 0
BITMAP
F0
00
00
60
60
60
60
60
60
60
60
ENDCHAR
STARTCHAR Ibreve
ENCODING 300
SWIDTH 352 0
DWIDTH 6 0
BBX 6 17 0 0
BITMAP
CC
78
30
00
30
30
30
30
30
30
30
30
30
30
30
30
30
ENDCHAR
STARTCHAR ibreve
ENCODING 301
SWIDTH 349 0
DWIDTH 6 0
BBX 6 12 0 0
BITMAP
CC
78
30
00
30
30
30
30
30
30
30
30
ENDCHAR
STARTCHAR Iogonek
ENCODING 302
SWIDTH 294 0
DWIDTH 5 0
BBX 4 17 0 -4
BITMAP
20
20
20
20
20
20
20
20
20
20
20
20
20
60
C0
D0
E0
ENDCHAR
STARTCHAR iogonek
ENCODING 303
SWIDTH 249 0
DWIDTH 4 0
BBX 3 17 0 -4
BITMAP
20
60
60
00
00
60
60
60
60
60
60
60
60
40
80
C0
E0
ENDCHAR
STARTCHAR Idotaccent
ENCODING 304
SWIDTH 294 0
DWIDTH 5 0
BBX 3 17 1 0
BITMAP
40
E0
40
00
40
40
40
40
40
40
40
40
40
40
40
40
40
ENDCHAR
STARTCHAR dotlessi
ENCODING 305
SWIDTH 249 0
DWIDTH 4 0
BBX 2 8 1 0
BITMAP
C0
C0
C0
C0
C0
C0
C0
C0
ENDCHAR
STARTCHAR IJ
ENCODING 306
SWIDTH 722 0
DWIDTH 12 0
BBX 9 13 2 0
BITMAP
8180
8180
8180
8180
8180
8180
8180
8180
8180
8180
8180
8F00
9E00
ENDCHAR
STARTCHAR ij
ENCODING 307
SWIDTH 515 0
DWIDTH 9 0
BBX 6 17 1 -4
BITMAP
44
CC
CC
00
00
CC
CC
CC
CC
CC
CC
CC
CC
0C
0C
0C
0C
ENDCHAR
STARTCHAR Jcircumflex
ENCODING 308
SWIDTH 454 0
DWIDTH 8 0
BBX 7 18 0 0
BITMAP
08
1C
36
02
00
18
18
18
18
18
18
18
18
18
18
18
F8
F0
ENDCHAR
STARTCHAR jcircumflex
ENCODING 309
SWIDTH 342 0
DWIDTH 6 0
BBX 6 16 0 -3
BITMAP
20
78
DC
08
00
00
30
30
30
30
30
30
30
30
30
30
ENDCHAR
STARTCHAR Kcedilla
ENCODING 310
SWIDTH 662 0
DWIDTH 11 0
BBX 9 18 2 -5
BITMAP
8380
8700
8E00
9C00
B800
F000
F000
F800
9800
8C00
8E00
8700
8380
0000
3000
3000
1000
1000
ENDCHAR
STARTCHAR kcedilla
ENCODING 311
SWIDTH 498 0
DWIDTH 8 0
BBX 7 19 1 -5
BITMAP
C0
C0
C0
C0
C0
C0
CE
DC
F8
F0
F8
D8
CC
C6
00
30
30
10
10
ENDCHAR
STARTCHAR kgreenlandic
ENCODING 312
SWIDTH 498 0
DWIDTH 8 0
BBX 7 8 1 0
BITMAP
CE
DC
F8
F0
F8
D8
CC
C6
ENDCHAR
STARTCHAR Lacute
ENCODING 313
SWIDTH 443 0
DWIDTH 8 0
BBX 5 17 2 0
BITMAP
30
60
C0
00
80
80
80
80
80
80
80
80
80
80
80
F8
F8
ENDCHAR
STARTCHAR lacute
ENCODING 314
SWIDTH 249 0
DWIDTH 4 0
BBX 3 18 1 0
BITMAP
60
E0
80
00
C0
C0
C0
C0
C0
C0
C0
C0
C0
C0
C0
C0
C0
C0
ENDCHAR
STARTCHAR Lcedilla
ENCODING 315
SWIDTH 443 0
DWIDTH 8 0
BBX 5 18 2 -5
BITMAP
80
80
80
80
80
80
80
80
80
80
80
F8
F8
00
60
60
20
20
ENDCHAR
STARTCHAR lcedilla
ENCODING 316
SWIDTH 249 0
DWIDTH 4 0
BBX 2 19 1 -5
BITMAP
C0
C0
C0
C0
C0
C0
C0
C0
C0
C0
C0
C0
C0
C0
00
C0
C0
40
C0
ENDCHAR
STARTCHAR Lcaron
ENCODING 317
SWIDTH 443 0
DWIDTH 8 0
BBX 5 13 2 0
BITMAP
98
98
98
90
80
80
80
80
80
80
80
F8
F8
ENDCHAR
STARTCHAR lcaron
ENCODING 318
SWIDTH 356 0
DWIDTH 6 0
BBX 5 14 1 0
BITMAP
C0
D8
D8
C8
D8
C0
C0
C0
C0
C0
C0
C0
C0
C0
ENDCHAR
STARTCHAR Ldotaccent
ENCODING 319
SWIDTH 443 0
DWIDTH 8 0
BBX 6 13 2 0
BITMAP
80
98
9C
88
80
80
80
80
80
80
80
F8
F8
ENDCHAR
STARTCHAR ldotaccent
ENCODING 320
SWIDTH 468 0
DWIDTH 8 0
BBX 6 14 1 0
BITMAP
C0
C0
CC
DC
C8
C0
C0
C0
C0
C0
C0
C0
C0
C0
ENDCHAR
STARTCHAR Lslash
ENCODING 321
SWIDTH 443 0
DWIDTH 8 0
BBX 7 13 0 0
BITMAP
20
20
20
20
2C
3C
70
E0
A0
20
20
3E
3E
ENDCHAR
STARTCHAR lslash
ENCODING 322
SWIDTH 298 0
DWIDTH 5 0
BBX 5 14 0 0
BITMAP
20
20
20
20
20
28
38
70
E0
20
20
20
20
20
ENDCHAR
STARTCHAR Nacute
ENCODING 323
SWIDTH 844 0
DWIDTH 14 0
BBX 11 17 2 0
BITMAP
0700
0E00
0800
0000
8060
C060
E060
F060
B060
9860
8C60
8660
8360
81E0
80E0
8060
8020
ENDCHAR
STARTCHAR nacute
ENCODING 324
SWIDTH 548 0
DWIDTH 9 0
BBX 7 13 1 0
BITMAP
0C
0C
18
10
00
FC
E6
C6
C6
C6
C6
C6
C6
ENDCHAR
STARTCHAR Ncedilla
ENCODING 325
SWIDTH 844 0
DWIDTH 14 0
BBX 11 18 2 -5
BITMAP
8060
C060
E060
F060
B060
9860
8C60
8660
8360
81E0
80E0
8060
8020
0000
0400
0400
0400
0400
ENDCHAR
STARTCHAR ncedilla
ENCODING 326
SWIDTH 548 0
DWIDTH 9 0
BBX 7 13 1 -5
BITMAP
FC
E6
C6
C6
C6
C6
C6
C6
00
18
18
18
10
ENDCHAR
STARTCHAR Ncaron
ENCODING 327
SWIDTH 844 0
DWIDTH 14 0
BBX 11 18 2 0
BITMAP
1000
3B00
0E00
0400
0000
8060
C060
E060
F060
B060
9860
8C60
8660
8360
81E0
80E0
8060
8020
ENDCHAR
STARTCHAR ncaron
ENCODING 328
SWIDTH 548 0
DWIDTH 9 0
BBX 7 13 1 0
BITMAP
24
7C
18
00
00
FC
E6
C6
C6
C6
C6
C6
C6
ENDCHAR
STARTCHAR quoterightn
ENCODING 329
SWIDTH 777 0
DWIDTH 13 0
BBX 10 13 1 0
BITMAP
2000
6000
4000
C000
8000
1FC0
1CC0
18C0
1840
1840
1840
1840
1840
ENDCHAR
STARTCHAR Omacron
ENCODING 332
SWIDTH 893 0
DWIDTH 15 0
BBX 13 16 1 0
BITMAP
0FC0
0FC0
0000
0F80
3FE0
7070
6038
C018
C018
C018
C018
C018
6038
7070
3FE0
0FC0
ENDCHAR
STARTCHAR omacron
ENCODING 333
SWIDTH 601 0
DWIDTH 10 0
BBX 8 11 1 0
BITMAP
7E
00
00
3E
67
C3
C3
C3
C3
77
3E
ENDCHAR
STARTCHAR Obreve
ENCODING 334
SWIDTH 893 0
DWIDTH 15 0
BBX 13 17 1 0
BITMAP
0880
0F80
0300
0000
0F80
3FE0
7070
6038
C018
C018
C018
C018
C018
6038
7070
3FE0
0FC0
ENDCHAR
STARTCHAR obreve
ENCODING 335
SWIDTH 601 0
DWIDTH 10 0
BBX 8 12 1 0
BITMAP
66
3E
18
00
3E
67
C3
C3
C3
C3
77
3E
ENDCHAR
STARTCHAR Ohungarumlaut
ENCODING 336
SWIDTH 893 0
DWIDTH 15 0
BBX 13 17 1 0
BITMAP
0760
0EC0
0980
0000
0F80
3FE0
7070
6038
C018
C018
C018
C018
C018
6038
7070
3FE0
0FC0
ENDCHAR
STARTCHAR ohungarumlaut
ENCODING 337
SWIDTH 601 0
DWIDTH 10 0
BBX 8 13 1 0
BITMAP
13
33
26
04
00
3E
67
C3
C3
C3
C3
77
3E
ENDCHAR
STARTCHAR OE
ENCODING 338
SWIDTH 1183 0
DWIDTH 20 0
BBX 18 13 1 0
BITMAP
0F9FC0
3FFFC0
707800
603800
C01800
C01FC0
C01FC0
C01800
C01800
603800
707800
3FFFC0
0FDFC0
ENDCHAR
STARTCHAR oe
ENCODING 339
SWIDTH 953 0
DWIDTH 16 0
BBX 14 8 1 0
BITMAP
3EF8
67DC
C38C
C3FC
C300
C384
67DC
3EF8
ENDCHAR
STARTCHAR Racute
ENCODING 340
SWIDTH 602 0
DWIDTH 10 0
BBX 7 17 2 0
BITMAP
18
30
60
00
F0
FC
8C
86
86
8C
FC
F0
B8
98
8C
8E
86
ENDCHAR
STARTCHAR racute
ENCODING 341
SWIDTH 374 0
DWIDTH 6 0
BBX 5 13 1 0
BITMAP
18
18
30
20
00
F8
F8
C0
C0
C0
C0
C0
C0
ENDCHAR
STARTCHAR Rcedilla
ENCODING 342
SWIDTH 602 0
DWIDTH 10 0
BBX 7 18 2 -5
BITMAP
F0
FC
8C
86
86
8C
FC
F0
B8
98
8C
8E
86
00
30
30
10
30
ENDCHAR
STARTCHAR rcedilla
ENCODING 343
SWIDTH 374 0
DWIDTH 6 0
BBX 5 13 1 -5
BITMAP
F8
F8
C0
C0
C0
C0
C0
C0
00
60
60
20
60
ENDCHAR
STARTCHAR Rcaron
ENCODING 344
SWIDTH 602 0
DWIDTH 10 0
BBX 7 17 2 0
BITMAP
D8
70
20
00
F0
FC
8C
86
86
8C
FC
F0
B8
98
8C
8E
86
ENDCHAR
STARTCHAR rcaron
ENCODING 345
SWIDTH 374 0
DWIDTH 6 0
BBX 5 13 1 0
BITMAP
88
D8
70
20
00
F8
F8
C0
C0
C0
C0
C0
C0
ENDCHAR
STARTCHAR Sacute
ENCODING 346
SWIDTH 583 0
DWIDTH 10 0
BBX 8 17 1 0
BITMAP
0E
1C
10
00
3C
7E
62
C0
60
78
1E
07
03
C3
C3
7E
3C
ENDCHAR
STARTCHAR sacute
ENCODING 347
SWIDTH 405 0
DWIDTH 7 0
BBX 5 13 1 0
BITMAP
18
18
30
20
00
70
D0
C0
70
38
18
D8
F8
ENDCHAR
STARTCHAR Scircumflex
ENCODING 348
SWIDTH 583 0
DWIDTH 10 0
BBX 8 18 1 0
BITMAP
08
1C
76
20
00
3C
7E
62
C0
60
78
1E
07
03
C3
C3
7E
3C
ENDCHAR
STARTCHAR scircumflex
ENCODING 349
SWIDTH 405 0
DWIDTH 7 0
BBX 5 13 1 0
BITMAP
20
70
D8
00
00
70
D0
C0
70
38
18
D8
F8
ENDCHAR
STARTCHAR Scedilla
ENCODING 350
SWIDTH 583 0
DWIDTH 10 0
BBX 8 17 1 -4
BITMAP
3C
7E
62
C0
60
78
1E
07
03
C3
C3
7E
3C
00
08
18
30
ENDCHAR
STARTCHAR scedilla
ENCODING 351
SWIDTH 405 0
DWIDTH 7 0
BBX 5 12 1 -4
BITMAP
70
D0
C0
70
38
18
D8
F8
00
30
20
60
ENDCHAR
STARTCHAR Scaron
ENCODING 352
SWIDTH 583 0
DWIDTH 10 0
BBX 8 18 1 0
BITMAP
20
76
3C
08
00
3C
7E
62
C0
60
78
1E
07
03
C3
C3
7E
3C
ENDCHAR
STARTCHAR scaron
ENCODING 353
SWIDTH 405 0
DWIDTH 7 0
BBX 5 13 1 0
BITMAP
88
D8
70
20
00
70
D0
C0
70
38
18
D8
F8
ENDCHAR
STARTCHAR Tcedilla
ENCODING 354
SWIDTH 482 0
DWIDTH 8 0
BBX 8 18 0 -5
BITMAP
FF
FF
18
18
18
18
18
18
18
18
18
18
18
00
18
18
08
18
ENDCHAR
STARTCHAR tcedilla
ENCODING 355
SWIDTH 273 0
DWIDTH 5 0
BBX 5 16 0 -5
BITMAP
60
60
60
F8
F8
60
60
60
60
60
60
00
60
60
20
20
ENDCHAR
STARTCHAR Tcaron
ENCODING 356
SWIDTH 482 0
DWIDTH 8 0
BBX 8 18 0 0
BITMAP
20
76
3C
08
00
FF
FF
18
18
18
18
18
18
18
18
18
18
18
ENDCHAR
STARTCHAR tcaron
ENCODING 357
SWIDTH 376 0
DWIDTH 6 0
BBX 6 13 0 0
BITMAP
0C
0C
64
64
60
F8
F8
60
60
60
60
60
60
ENDCHAR
STARTCHAR Tbar
ENCODING 358
SWIDTH 482 0
DWIDTH 8 0
BBX 8 13 0 0
BITMAP
FF
FF
18
18
18
3C
3C
18
18
18
18
18
18
ENDCHAR
STARTCHAR tbar
ENCODING 359
SWIDTH 273 0
DWIDTH 5 0
BBX 5 11 0 0
BITMAP
60
60
60
F8
F8
60
F0
F0
60
60
60
ENDCHAR
STARTCHAR Utilde
ENCODING 360
SWIDTH 738 0
DWIDTH 13 0
BBX 9 17 2 0
BITMAP
3A00
7E00
0000
0000
8180
8180
8180
8180
8180
8180
8180
8180
8180
C180
C380
7F00
3E00
ENDCHAR
STARTCHAR utilde
ENCODING 361
SWIDTH 544 0
DWIDTH 9 0
BBX 7 12 1 0
BITMAP
72
FE
40
00
C6
C6
C6
C6
C6
C6
6E
7C
ENDCHAR
STARTCHAR Umacron
ENCODING 362
SWIDTH 738 0
DWIDTH 13 0
BBX 9 16 2 0
BITMAP
7E00
7E00
0000
8180
8180
8180
8180
8180
8180
8180
8180
8180
C180
C380
7F00
3E00
ENDCHAR
STARTCHAR umacron
ENCODING 363
SWIDTH 544 0
DWIDTH 9 0
BBX 7 11 1 0
BITMAP
7E
00
00
C6
C6
C6
C6
C6
C6
6E
7C
ENDCHAR
STARTCHAR Ubreve
ENCODING 364
SWIDTH 738 0
DWIDTH 13 0
BBX 9 17 2 0
BITMAP
6200
3E00
1800
0000
8180
8180
8180
8180
8180
8180
8180
8180
8180
C180
C380
7F00
3E00
ENDCHAR
STARTCHAR ubreve
ENCODING 365
SWIDTH 544 0
DWIDTH 9 0
BBX 7 12 1 0
BITMAP
66
7C
18
00
C6
C6
C6
C6
C6
C6
6E
7C
ENDCHAR
STARTCHAR Uring
ENCODING 366
SWIDTH 738 0
DWIDTH 13 0
BBX 9 18 2 0
BITMAP
0800
1400
1400
1C00
0000
8180
8180
8180
8180
8180
8180
8180
8180
8180
C180
C380
7F00
3E00
ENDCHAR
STARTCHAR uring
ENCODING 367
SWIDTH 544 0
DWIDTH 9 0
BBX 7 13 1 0
BITMAP
38
28
28
10
00
C6
C6
C6
C6
C6
C6
6E
7C
ENDCHAR
STARTCHAR Uhungarumlaut
ENCODING 368
SWIDTH 738 0
DWIDTH 13 0
BBX 9 17 2 0
BITMAP
1980
3B00
2600
0000
8180
8180
8180
8180
8180
8180
8180
8180
8180
C180
C380
7F00
3E00
ENDCHAR
STARTCHAR uhungarumlaut
ENCODING 369
SWIDTH 544 0
DWIDTH 9 0
BBX 8 13 1 0
BITMAP
12
33
66
04
00
C6
C6
C6
C6
C6
C6
6E
7C
ENDCHAR
STARTCHAR Uogonek
ENCODING 370
SWIDTH 738 0
DWIDTH 13 0
BBX 9 17 2 -4
BITMAP
8180
8180
8180
8180
8180
8180
8180
8180
8180
C180
C380
7F00
3E00
1800
1000
1800
1C00
ENDCHAR
STARTCHAR uogonek
ENCODING 371
SWIDTH 544 0
DWIDTH 9 0
BBX 7 12 1 -4
BITMAP
C6
C6
C6
C6
C6
C6
6E
7C
10
30
30
38
ENDCHAR
STARTCHAR Wcircumflex
ENCODING 372
SWIDTH 1060 0
DWIDTH 18 0
BBX 18 19 0 -1
BITMAP
00C000
01E000
03F000
012000
000000
C000C0
60C180
60C180
61C180
31E300
31E300
1B3600
1B3600
1B3C00
0E1C00
0E1C00
041800
040800
040000
ENDCHAR
STARTCHAR wcircumflex
ENCODING 373
SWIDTH 773 0
DWIDTH 13 0
BBX 13 13 0 0
BITMAP
0200
0700
0D80
0000
0200
C218
6330
6730
3760
3DE0
1DC0
18C0
0880
ENDCHAR
STARTCHAR Ycircumflex
ENCODING 374
SWIDTH 600 0
DWIDTH 10 0
BBX 10 18 0 0
BITMAP
0400
1E00
3F00
1000
0000
C0C0
61C0
6180
3300
3B00
1E00
0E00
0C00
0C00
0C00
0C00
0C00
0C00
ENDCHAR
STARTCHAR ycircumflex
ENCODING 375
SWIDTH 543 0
DWIDTH 9 0
BBX 9 17 0 -4
BITMAP
0800
1C00
3600
0200
0000
E180
6300
3300
3600
1E00
1C00
0C00
1800
1800
3000
3000
6000
ENDCHAR
STARTCHAR Ydieresis
ENCODING 376
SWIDTH 600 0
DWIDTH 10 0
BBX 10 16 0 0
BITMAP
3300
3300
0000
C0C0
61C0
6180
3300
3B00
1E00
0E00
0C00
0C00
0C00
0C00
0C00
0C00
ENDCHAR
STARTCHAR Zacute
ENCODING 377
SWIDTH 625 0
DWIDTH 11 0
BBX 9 17 1 0
BITMAP
0600
0C00
1800
0000
7F80
7F00
0300
0600
0E00
0C00
1800
1800
3000
3000
6000
FF80
FF80
ENDCHAR
STARTCHAR zacute
ENCODING 378
SWIDTH 543 0
DWIDTH 9 0
BBX 8 13 1 0
BITMAP
04
0C
18
00
00
FF
FE
0C
18
30
60
FF
FF
ENDCHAR
STARTCHAR Zdotaccent
ENCODING 379
SWIDTH 625 0
DWIDTH 11 0
BBX 9 17 1 0
BITMAP
0800
1C00
0C00
0000
7F80
7F00
0300
0600
0E00
0C00
1800
1800
3000
3000
6000
FF80
FF80
ENDCHAR
STARTCHAR zdotaccent
ENCODING 380
SWIDTH 543 0
DWIDTH 9 0
BBX 8 12 1 0
BITMAP
18
18
00
00
FF
FE
0C
18
30
60
FF
FF
ENDCHAR
STARTCHAR Zcaron
ENCODING 381
SWIDTH 625 0
DWIDTH 11 0
BBX 9 18 1 0
BITMAP
0200
3600
1C00
0800
0000
7F80
7F00
0300
0600
0E00
0C00
1800
1800
3000
3000
6000
FF80
FF80
ENDCHAR
STARTCHAR zcaron
ENCODING 382
SWIDTH 543 0
DWIDTH 9 0
BBX 8 13 1 0
BITMAP
24
3C
18
00
00
FF
FE
0C
18
30
60
FF
FF
ENDCHAR
STARTCHAR florin
ENCODING 402
SWIDTH 641 0
DWIDTH 11 0
BBX 8 17 1 -3
BITMAP
01
07
0E
0C
0C
0C
3F
18
18
18
18
18
30
30
30
E0
C0
ENDCHAR
STARTCHAR Scommaaccent
ENCODING 536
SWIDTH 583 0
DWIDTH 10 0
BBX 8 17 1 -4
BITMAP
3C
7E
62
C0
60
78
1E
07
03
C3
C3
7E
3C
00
08
18
30
ENDCHAR
STARTCHAR scommaaccent
ENCODING 537
SWIDTH 405 0
DWIDTH 7 0
BBX 5 12 1 -4
BITMAP
70
D0
C0
70
38
18
D8
F8
00
30
60
60
ENDCHAR
STARTCHAR Tcedilla.dup1
ENCODING 538
SWIDTH 482 0
DWIDTH 8 0
BBX 8 18 0 -5
BITMAP
FF
FF
18
18
18
18
18
18
18
18
18
18
18
00
18
18
08
18
ENDCHAR
STARTCHAR tcedilla.dup2
ENCODING 539
SWIDTH 273 0
DWIDTH 5 0
BBX 5 16 0 -5
BITMAP
60
60
60
F8
F8
60
60
60
60
60
60
00
60
60
20
20
ENDCHAR
STARTCHAR quoteleft
ENCODING 699
SWIDTH 326 0
DWIDTH 6 0
BBX 3 5 1 8
BITMAP
20
60
60
C0
C0
ENDCHAR
STARTCHAR quoteright
ENCODING 700
SWIDTH 326 0
DWIDTH 6 0
BBX 3 5 1 8
BITMAP
20
60
40
C0
80
ENDCHAR
STARTCHAR circumflex
ENCODING 710
SWIDTH 565 0
DWIDTH 10 0
BBX 6 4 2 9
BITMAP
20
70
DC
08
ENDCHAR
STARTCHAR caron
ENCODING 711
SWIDTH 565 0
DWIDTH 10 0
BBX 5 3 2 10
BITMAP
48
F8
30
ENDCHAR
STARTCHAR macron.dup3
ENCODING 713
SWIDTH 565 0
DWIDTH 10 0
BBX 6 1 2 10
BITMAP
FC
ENDCHAR
STARTCHAR breve
ENCODING 728
SWIDTH 565 0
DWIDTH 10 0
BBX 6 3 2 9
BITMAP
CC
F8
30
ENDCHAR
STARTCHAR dotaccent
ENCODING 729
SWIDTH 565 0
DWIDTH 10 0
BBX 2 2 4 10
BITMAP
C0
C0
ENDCHAR
STARTCHAR ring
ENCODING 730
SWIDTH 565 0
DWIDTH 10 0
BBX 4 4 3 9
BITMAP
60
90
D0
60
ENDCHAR
STARTCHAR ogonek
ENCODING 731
SWIDTH 650 0
DWIDTH 11 0
BBX 4 4 4 -4
BITMAP
40
C0
D0
E0
ENDCHAR
STARTCHAR tilde
ENCODING 732
SWIDTH 565 0
DWIDTH 10 0
BBX 7 3 1 9
BITMAP
72
FE
40
ENDCHAR
STARTCHAR hungarumlaut
ENCODING 733
SWIDTH 565 0
DWIDTH 10 0
BBX 6 4 3 9
BITMAP
44
CC
98
10
ENDCHAR
STARTCHAR gravecmb
ENCODING 768
SWIDTH 0 0
DWIDTH 0 0
BBX 3 3 -7 10
BITMAP
80
C0
60
ENDCHAR
STARTCHAR acutecmb
ENCODING 769
SWIDTH 0 0
DWIDTH 0 0
BBX 3 4 -5 9
BITMAP
60
E0
C0
80
ENDCHAR
STARTCHAR circumflexcmb
ENCODING 770
SWIDTH 0 0
DWIDTH 0 0
BBX 6 4 -8 9
BITMAP
10
38
EC
40
ENDCHAR
STARTCHAR tildecmb
ENCODING 771
SWIDTH 0 0
DWIDTH 0 0
BBX 6 3 -8 9
BITMAP
64
FC
08
ENDCHAR
STARTCHAR macroncmb
ENCODING 772
SWIDTH 0 0
DWIDTH 0 0
BBX 6 1 -8 10
BITMAP
FC
ENDCHAR
STARTCHAR brevecmb
ENCODING 774
SWIDTH 0 0
DWIDTH 0 0
BBX 6 3 -8 9
BITMAP
CC
7C
30
ENDCHAR
STARTCHAR dotaccentcmb
ENCODING 775
SWIDTH 0 0
DWIDTH 0 0
BBX 2 2 -6 10
BITMAP
C0
C0
ENDCHAR
STARTCHAR dieresiscmb
ENCODING 776
SWIDTH 0 0
DWIDTH 0 0
BBX 6 3 -8 9
BITMAP
4C
EC
40
ENDCHAR
STARTCHAR ringcmb
ENCODING 778
SWIDTH 0 0
DWIDTH 0 0
BBX 3 4 -6 9
BITMAP
E0
A0
A0
40
ENDCHAR
STARTCHAR hungarumlautcmb
ENCODING 779
SWIDTH 0 0
DWIDTH 0 0
BBX 6 4 -7 9
BITMAP
24
6C
C8
80
ENDCHAR
STARTCHAR caroncmb
ENCODING 780
SWIDTH 0 0
DWIDTH 0 0
BBX 5 3 -7 10
BITMAP
90
F8
70
ENDCHAR
STARTCHAR commaaccent
ENCODING 806
SWIDTH 0 0
DWIDTH 0 0
BBX 2 4 -3 -5
BITMAP
C0
C0
40
C0
ENDCHAR
STARTCHAR cedillacmb
ENCODING 807
SWIDTH 0 0
DWIDTH 0 0
BBX 3 3 -6 -4
BITMAP
60
C0
80
ENDCHAR
STARTCHAR ogonekcmb
ENCODING 808
SWIDTH 0 0
DWIDTH 0 0
BBX 3 4 -7 -4
BITMAP
40
C0
C0
E0
ENDCHAR
STARTCHAR soliduslongoverlaycmb
ENCODING 824
SWIDTH 0 0
DWIDTH 0 0
BBX 9 17 -9 -3
BITMAP
0180
0180
0300
0300
0600
0600
0400
0C00
0C00
1800
1800
3000
3000
2000
6000
4000
C000
ENDCHAR
STARTCHAR Deltagreek
ENCODING 916
SWIDTH 753 0
DWIDTH 13 0
BBX 11 13 1 0
BITMAP
0E00
0E00
1E00
1B00
1B00
3300
3180
3180
60C0
60C0
C0C0
FFE0
FFE0
ENDCHAR
STARTCHAR Omegagreek
ENCODING 937
SWIDTH 753 0
DWIDTH 13 0
BBX 11 13 1 0
BITMAP
1F00
7F80
60C0
C060
C060
C060
C060
C060
C060
40C0
2180
FBE0
FBE0
ENDCHAR
STARTCHAR pi
ENCODING 960
SWIDTH 702 0
DWIDTH 12 0
BBX 10 9 1 0
BITMAP
FFC0
FFC0
6180
6180
6180
6180
6180
6180
6180
ENDCHAR
STARTCHAR zerowidthjoiner
ENCODING 8205
SWIDTH 0 0
DWIDTH 0 0
BBX 1 1 0 0
BITMAP
00
ENDCHAR
STARTCHAR endash
ENCODING 8211
SWIDTH 641 0
DWIDTH 11 0
BBX 7 2 2 3
BITMAP
FE
FE
ENDCHAR
STARTCHAR emdash
ENCODING 8212
SWIDTH 652 0
DWIDTH 11 0
BBX 11 2 0 3
BITMAP
FFE0
FFE0
ENDCHAR
STARTCHAR quoteleft.dup4
ENCODING 8216
SWIDTH 326 0
DWIDTH 6 0
BBX 3 5 1 8
BITMAP
20
60
60
C0
C0
ENDCHAR
STARTCHAR quoteright.dup5
ENCODING 8217
SWIDTH 326 0
DWIDTH 6 0
BBX 3 5 1 8
BITMAP
20
60
40
C0
80
ENDCHAR
STARTCHAR quotesinglbase
ENCODING 8218
SWIDTH 326 0
DWIDTH 6 0
BBX 3 5 1 -3
BITMAP
20
60
40
C0
80
ENDCHAR
STARTCHAR quotedblleft
ENCODING 8220
SWIDTH 521 0
DWIDTH 9 0
BBX 7 5 1 8
BITMAP
26
64
6C
CC
C8
ENDCHAR
STARTCHAR quotedblright
ENCODING 8221
SWIDTH 521 0
DWIDTH 9 0
BBX 7 5 1 8
BITMAP
26
6C
4C
C8
98
ENDCHAR
STARTCHAR quotedblbase
ENCODING 8222
SWIDTH 521 0
DWIDTH 9 0
BBX 7 5 1 -3
BITMAP
26
6C
4C
C8
98
ENDCHAR
STARTCHAR dagger
ENCODING 8224
SWIDTH 641 0
DWIDTH 11 0
BBX 7 17 2 -3
BITMAP
10
10
10
FE
FE
10
10
10
10
10
10
10
10
10
10
10
10
ENDCHAR
STARTCHAR daggerdbl
ENCODING 8225
SWIDTH 641 0
DWIDTH 11 0
BBX 7 17 2 -3
BITMAP
10
10
10
FE
FE
10
10
10
10
10
FE
FE
10
10
10
10
10
ENDCHAR
STARTCHAR bullet
ENCODING 8226
SWIDTH 753 0
DWIDTH 13 0
BBX 5 5 4 4
BITMAP
70
F8
F8
F8
70
ENDCHAR
STARTCHAR ellipsis
ENCODING 8230
SWIDTH 944 0
DWIDTH 16 0
BBX 12 2 2 0
BITMAP
C630
C630
ENDCHAR
STARTCHAR perthousand
ENCODING 8240
SWIDTH 1359 0
DWIDTH 23 0
BBX 21 13 1 0
BITMAP
702000
D84000
8C4000
8C8000
C98000
790000
020000
027070
04D8D8
0C8D88
088D88
18CCD8
107870
ENDCHAR
STARTCHAR guilsinglleft
ENCODING 8249
SWIDTH 366 0
DWIDTH 6 0
BBX 4 8 1 0
BITMAP
30
30
60
C0
C0
60
30
10
ENDCHAR
STARTCHAR guilsinglright
ENCODING 8250
SWIDTH 366 0
DWIDTH 6 0
BBX 4 8 1 0
BITMAP
C0
60
60
30
30
60
C0
40
ENDCHAR
STARTCHAR fraction
ENCODING 8260
SWIDTH 183 0
DWIDTH 3 0
BBX 8 13 -2 0
BITMAP
03
02
06
04
08
08
10
30
20
40
40
80
80
ENDCHAR
STARTCHAR Euro
ENCODING 8364
SWIDTH 617 0
DWIDTH 11 0
BBX 7 13 2 0
BITMAP
0E
3E
70
60
FC
FC
00
FC
FC
60
70
3E
1E
ENDCHAR
STARTCHAR trademark
ENCODING 8482
SWIDTH 794 0
DWIDTH 14 0
BBX 13 7 0 6
BITMAP
FA10
2210
2330
2330
23D0
26D8
24D8
ENDCHAR
STARTCHAR Omega
ENCODING 8486
SWIDTH 753 0
DWIDTH 13 0
BBX 11 13 1 0
BITMAP
1F00
7F80
60C0
C060
C060
C060
C060
C060
C060
40C0
2180
FBE0
FBE0
ENDCHAR
STARTCHAR partialdiff
ENCODING 8706
SWIDTH 565 0
DWIDTH 10 0
BBX 9 13 0 0
BITMAP
2000
7C00
0E00
0700
0300
3F80
7380
6180
C180
4180
6180
7300
3E00
ENDCHAR
STARTCHAR Delta
ENCODING 8710
SWIDTH 753 0
DWIDTH 13 0
BBX 11 13 1 0
BITMAP
0E00
0E00
1E00
1B00
1B00
3300
3180
3180
60C0
60C0
C0C0
FFE0
FFE0
ENDCHAR
STARTCHAR product
ENCODING 8719
SWIDTH 809 0
DWIDTH 14 0
BBX 12 19 1 -5
BITMAP
FFF0
6040
6040
6040
6040
6040
6040
6040
6040
6040
6040
6040
6040
6040
6040
6040
6040
F9F0
F9F0
ENDCHAR
STARTCHAR summation
ENCODING 8721
SWIDTH 753 0
DWIDTH 13 0
BBX 12 19 0 -5
BITMAP
FFF0
E030
6030
3030
3800
1800
0C00
0E00
0600
0600
0C00
0C00
1800
3800
3030
7030
6030
FFF0
FFF0
ENDCHAR
STARTCHAR minus
ENCODING 8722
SWIDTH 641 0
DWIDTH 11 0
BBX 9 1 1 6
BITMAP
FF80
ENDCHAR
STARTCHAR divisionslash
ENCODING 8725
SWIDTH 183 0
DWIDTH 3 0
BBX 8 13 -2 0
BITMAP
03
02
06
04
08
08
10
30
20
40
40
80
80
ENDCHAR
STARTCHAR bulletoperator
ENCODING 8729
SWIDTH 308 0
DWIDTH 5 0
BBX 3 3 1 5
BITMAP
40
E0
40
ENDCHAR
STARTCHAR radical
ENCODING 8730
SWIDTH 753 0
DWIDTH 13 0
BBX 13 16 0 0
BITMAP
01F8
01F8
0180
0180
0380
0300
0300
0300
0600
E600
F600
3600
3400
3C00
1C00
1C00
ENDCHAR
STARTCHAR infinity
ENCODING 8734
SWIDTH 753 0
DWIDTH 13 0
BBX 12 7 0 3
BITMAP
1040
7DF0
E730
C610
E730
7DF0
0040
ENDCHAR
STARTCHAR integral
ENCODING 8747
SWIDTH 565 0
DWIDTH 10 0
BBX 7 19 1 -5
BITMAP
1E
18
18
18
18
18
18
18
18
18
18
18
18
18
18
18
18
70
E0
ENDCHAR
STARTCHAR approxequal
ENCODING 8776
SWIDTH 565 0
DWIDTH 10 0
BBX 9 7 0 3
BITMAP
3080
7F80
CF00
0000
7880
FF80
0300
ENDCHAR
STARTCHAR notequal
ENCODING 8800
SWIDTH 565 0
DWIDTH 10 0
BBX 8 9 1 2
BITMAP
04
0C
FF
FF
18
FF
FF
20
60
ENDCHAR
STARTCHAR lessequal
ENCODING 8804
SWIDTH 565 0
DWIDTH 10 0
BBX 8 11 1 1
BITMAP
03
0F
3C
F0
C0
F0
3C
07
01
00
FF
ENDCHAR
STARTCHAR greaterequal
ENCODING 8805
SWIDTH 565 0
DWIDTH 10 0
BBX 8 11 1 1
BITMAP
80
E0
3C
0F
03
1E
78
E0
80
00
FF
ENDCHAR
STARTCHAR lozenge
ENCODING 9674
SWIDTH 753 0
DWIDTH 13 0
BBX 10 13 1 0
BITMAP
0400
0E00
1E00
1B00
3180
61C0
E0C0
60C0
3180
1B00
1F00
0E00
0400
ENDCHAR
STARTCHAR apple
ENCODING 63743
SWIDTH 790 0
DWIDTH 13 0
BBX 12 14 1 0
BITMAP
0080
0300
0300
1280
7FE0
FFE0
FFC0
FFC0
FFC0
FFC0
FFF0
7FE0
7FE0
3FC0
ENDCHAR
STARTCHAR fi
ENCODING 64257
SWIDTH 530 0
DWIDTH 9 0
BBX 7 14 1 0
BITMAP
7C
6C
C6
C6
C0
C0
F6
F6
C6
C6
C6
C6
C6
C6
ENDCHAR
STARTCHAR fl
ENCODING 64258
SWIDTH 530 0
DWIDTH 9 0
BBX 7 14 1 0
BITMAP
7C
6C
C6
C6
C6
C6
F6
F6
C6
C6
C6
C6
C6
C6
ENDCHAR
STARTCHAR Dieresis
ENCODING -1
SWIDTH 740 0
DWIDTH 13 0
BBX 6 2 3 14
BITMAP
EC
4C
ENDCHAR
STARTCHAR Grave
ENCODING -1
SWIDTH 740 0
DWIDTH 13 0
BBX 3 3 4 14
BITMAP
C0
E0
20
ENDCHAR
STARTCHAR judge
ENCODING -1
SWIDTH 700 0
DWIDTH 12 0
BBX 3 3 5 -4
BITMAP
60
60
C0
ENDCHAR
STARTCHAR up
ENCODING -1
SWIDTH 294 0
DWIDTH 5 0
BBX 3 3 2 14
BITMAP
60
E0
80
ENDCHAR
STARTCHAR oak
ENCODING -1
SWIDTH 294 0
DWIDTH 5 0
BBX 3 3 0 14
BITMAP
C0
E0
20
ENDCHAR
STARTCHAR uniE770
ENCODING -1
SWIDTH 249 0
DWIDTH 4 0
BBX 6 3 -1 9
BITMAP
48
FC
48
ENDCHAR
STARTCHAR uniE773
ENCODING -1
SWIDTH 249 0
DWIDTH 4 0
BBX 2 3 2 10
BITMAP
40
C0
80
ENDCHAR
STARTCHAR uniE774
ENCODING -1
SWIDTH 249 0
DWIDTH 4 0
BBX 3 3 0 10
BITMAP
80
C0
60
ENDCHAR
STARTCHAR uniE772
ENCODING -1
SWIDTH 249 0
DWIDTH 4 0
BBX 5 4 0 9
BITMAP
20
70
F8
90
ENDCHAR
STARTCHAR ash
ENCODING -1
SWIDTH 249 0
DWIDTH 4 0
BBX 2 4 1 9
BITMAP
C0
C0
40
40
ENDCHAR
STARTCHAR yea
ENCODING -1
SWIDTH 842 0
DWIDTH 14 0
BBX 6 3 4 14
BITMAP
C4
7C
38
ENDCHAR
STARTCHAR ice
ENCODING -1
SWIDTH 294 0
DWIDTH 5 0
BBX 5 4 0 14
BITMAP
20
70
D8
88
ENDCHAR
STARTCHAR sure
ENCODING -1
SWIDTH 740 0
DWIDTH 13 0
BBX 5 4 4 14
BITMAP
20
70
F8
88
ENDCHAR
STARTCHAR hung
ENCODING -1
SWIDTH 740 0
DWIDTH 13 0
BBX 7 3 3 14
BITMAP
20
FE
1C
ENDCHAR
STARTCHAR fee
ENCODING -1
SWIDTH 740 0
DWIDTH 13 0
BBX 3 4 5 14
BITMAP
40
A0
A0
E0
ENDCHAR
STARTCHAR Caron
ENCODING -1
SWIDTH 625 0
DWIDTH 11 0
BBX 5 4 3 14
BITMAP
08
D8
70
20
ENDCHAR
STARTCHAR Acute
ENCODING -1
SWIDTH 565 0
DWIDTH 10 0
BBX 4 3 4 14
BITMAP
70
E0
80
ENDCHAR
STARTCHAR eat
ENCODING -1
SWIDTH 294 0
DWIDTH 5 0
BBX 5 2 0 14
BITMAP
D8
D8
ENDCHAR
STARTCHAR kick
ENCODING -1
SWIDTH 294 0
DWIDTH 5 0
BBX 3 3 1 14
BITMAP
40
E0
40
ENDCHAR
STARTCHAR uniF6C3
ENCODING -1
SWIDTH 249 0
DWIDTH 4 0
BBX 2 4 1 -5
BITMAP
C0
C0
40
40
ENDCHAR
STARTCHAR uniE784
ENCODING -1
SWIDTH 249 0
DWIDTH 4 0
BBX 2 4 1 9
BITMAP
C0
80
C0
C0
ENDCHAR
STARTCHAR Hungarumlaut
ENCODING -1
SWIDTH 893 0
DWIDTH 15 0
BBX 7 3 5 14
BITMAP
76
EC
98
ENDCHAR
STARTCHAR Macron
ENCODING -1
SWIDTH 565 0
DWIDTH 10 0
BBX 6 2 2 14
BITMAP
FC
FC
ENDCHAR
STARTCHAR ooze
ENCODING -1
SWIDTH 294 0
DWIDTH 5 0
BBX 5 2 0 14
BITMAP
F8
F8
ENDCHAR
STARTCHAR uniE775
ENCODING -1
SWIDTH 249 0
DWIDTH 4 0
BBX 4 1 0 10
BITMAP
F0
ENDCHAR
STARTCHAR dotlessj
ENCODING -1
SWIDTH 331 0
DWIDTH 6 0
BBX 2 10 2 -3
BITMAP
C0
C0
C0
C0
C0
C0
C0
C0
C0
C0
ENDCHAR
ENDFONT
